<?xml version="1.0" encoding="UTF-8" standalone="no"?>
<!-- Created with Inkscape (http://www.inkscape.org/) -->

<svg
   width="300"
   height="300"
   viewBox="0 0 300 300"
   version="1.1"
   id="svg1"
   inkscape:version="1.4 (e7c3feb100, 2024-10-09)"
   sodipodi:docname="distributor-logo-garuda-sgs-01.svg"
   inkscape:export-filename="distributor-logo-garuda-sgs-01.png"
   inkscape:export-xdpi="96"
   inkscape:export-ydpi="96"
   xmlns:inkscape="http://www.inkscape.org/namespaces/inkscape"
   xmlns:sodipodi="http://sodipodi.sourceforge.net/DTD/sodipodi-0.dtd"
   xmlns:xlink="http://www.w3.org/1999/xlink"
   xmlns="http://www.w3.org/2000/svg"
   xmlns:svg="http://www.w3.org/2000/svg">
  <sodipodi:namedview
     id="namedview1"
     pagecolor="#505050"
     bordercolor="#ffffff"
     borderopacity="1"
     inkscape:showpageshadow="0"
     inkscape:pageopacity="0"
     inkscape:pagecheckerboard="1"
     inkscape:deskcolor="#505050"
     inkscape:document-units="px"
     inkscape:zoom="1.045"
     inkscape:cx="400.47847"
     inkscape:cy="209.09091"
     inkscape:window-width="1440"
     inkscape:window-height="860"
     inkscape:window-x="0"
     inkscape:window-y="0"
     inkscape:window-maximized="1"
     inkscape:current-layer="layer1" />
  <defs
     id="defs1">
    <linearGradient
       id="linearGradient37"
       inkscape:collect="always">
      <stop
         style="stop-color:#ef918f;stop-opacity:1;"
         offset="0"
         id="stop12" />
      <stop
         style="stop-color:#f19989;stop-opacity:1;"
         offset="0.1436958"
         id="stop19" />
      <stop
         style="stop-color:#ed8796;stop-opacity:1;"
         offset="0.2874735"
         id="stop26" />
      <stop
         style="stop-color:#f5a97f;stop-opacity:1"
         offset="0.2974112"
         id="stop27" />
      <stop
         style="stop-color:#f5a97f;stop-opacity:1;"
         offset="0.38047278"
         id="stop28" />
      <stop
         style="stop-color:#eed49f;stop-opacity:1;"
         offset="0.38047278"
         id="stop29" />
      <stop
         style="stop-color:#eed49f;stop-opacity:1;"
         offset="0.49968362"
         id="stop30" />
      <stop
         style="stop-color:#a6da95;stop-opacity:1"
         offset="0.49968362"
         id="stop31" />
      <stop
         style="stop-color:#a6da95;stop-opacity:1;"
         offset="0.60149324"
         id="stop32" />
      <stop
         style="stop-color:#7dc4e4;stop-opacity:1;"
         offset="0.60149324"
         id="stop33" />
      <stop
         style="stop-color:#79bedd;stop-opacity:1;"
         offset="0.7251175"
         id="stop34" />
      <stop
         style="stop-color:#c6a0f6;stop-opacity:1;"
         offset="0.7251175"
         id="stop35" />
      <stop
         style="stop-color:#c6a0f6;stop-opacity:1;"
         offset="0.85397512"
         id="stop36" />
      <stop
         style="stop-color:#c6a0f6;stop-opacity:1;"
         offset="1"
         id="stop37" />
    </linearGradient>
    <linearGradient
       inkscape:collect="always"
       xlink:href="#linearGradient13"
       id="linearGradient14"
       x1="0"
       y1="0"
       x2="1544"
       y2="1544"
       gradientUnits="userSpaceOnUse"
       gradientTransform="matrix(0.19430051,0,0,0.19430051,-1.2197535e-5,7.667283e-8)" />
    <linearGradient
       id="linearGradient13"
       inkscape:collect="always">
      <stop
         style="stop-color:#ed8796;stop-opacity:1;"
         offset="0"
         id="stop13" />
      <stop
         style="stop-color:#f19989;stop-opacity:1;"
         offset="0.1436958"
         id="stop40" />
      <stop
         style="stop-color:#ed8796;stop-opacity:1;"
         offset="0.26335675"
         id="stop24" />
      <stop
         style="stop-color:#f5a97f;stop-opacity:1"
         offset="0.26335675"
         id="stop25" />
      <stop
         style="stop-color:#f5a97f;stop-opacity:1;"
         offset="0.38047278"
         id="stop23" />
      <stop
         style="stop-color:#eed49f;stop-opacity:1;"
         offset="0.38047278"
         id="stop22" />
      <stop
         style="stop-color:#eed49f;stop-opacity:1;"
         offset="0.49968362"
         id="stop21" />
      <stop
         style="stop-color:#a6da95;stop-opacity:1"
         offset="0.49968362"
         id="stop20" />
      <stop
         style="stop-color:#a6da95;stop-opacity:1;"
         offset="0.61428893"
         id="stop17" />
      <stop
         style="stop-color:#7dc4e4;stop-opacity:1;"
         offset="0.61428893"
         id="stop18" />
      <stop
         style="stop-color:#79bedd;stop-opacity:1;"
         offset="0.73365229"
         id="stop16" />
      <stop
         style="stop-color:#c6a0f6;stop-opacity:1;"
         offset="0.73365229"
         id="stop15" />
      <stop
         style="stop-color:#c6a0f6;stop-opacity:1;"
         offset="0.85397512"
         id="stop39" />
      <stop
         style="stop-color:#c6a0f6;stop-opacity:1;"
         offset="1"
         id="stop14" />
    </linearGradient>
    <filter
       inkscape:collect="always"
       style="color-interpolation-filters:sRGB"
       id="filter40"
       x="-0.0097880152"
       y="-0.013314858"
       width="1.019576"
       height="1.0266297">
      <feGaussianBlur
         inkscape:collect="always"
         stdDeviation="5.5804954"
         id="feGaussianBlur40" />
    </filter>
    <linearGradient
       inkscape:collect="always"
       xlink:href="#linearGradient13"
       id="linearGradient11"
       gradientUnits="userSpaceOnUse"
       gradientTransform="matrix(0.19430051,0,0,0.19430051,522.48803,7.667283e-8)"
       x1="0"
       y1="0"
       x2="1544"
       y2="1544" />
    <linearGradient
       inkscape:collect="always"
       xlink:href="#linearGradient37"
       id="linearGradient12"
       gradientUnits="userSpaceOnUse"
       gradientTransform="matrix(0.2135823,0,0,0.2135823,512.45555,-21.803236)"
       x1="1132.6017"
       y1="1186.6274"
       x2="365.41583"
       y2="422.95599" />
    <filter
       inkscape:collect="always"
       style="color-interpolation-filters:sRGB"
       id="filter37"
       x="-0.023424118"
       y="-0.031864356"
       width="1.0468482"
       height="1.0637287">
      <feGaussianBlur
         inkscape:collect="always"
         stdDeviation="13.354922"
         id="feGaussianBlur37" />
    </filter>
  </defs>
  <g
     inkscape:label="Ebene 1"
     inkscape:groupmode="layer"
     id="layer1">
    <path
       d="m 448.68144,220.50149 c -1.60016,0.20781 -3.34918,0.85346 -4.66752,1.72314 -1.48716,0.98112 -3.14263,2.91954 -3.87768,4.5407 -0.42445,0.936 -0.84026,2.40487 -0.85575,3.02225 -0.0112,0.45313 0.0254,0.54336 0.33203,0.81739 0.2945,0.2631 0.40479,0.2999 0.7572,0.2526 0.35718,-0.0479 0.52933,-0.18046 1.28299,-0.98818 1.46274,-1.56762 2.93275,-2.51537 4.92803,-3.17756 1.48322,-0.49222 2.51516,-0.62486 4.3013,-0.55282 2.92162,0.11788 5.36879,1.11241 7.60162,3.0893 0.88142,0.78038 1.11511,0.88495 1.63332,0.73058 0.79348,-0.23639 0.89649,-0.8914 0.3602,-2.29197 -1.82959,-4.77875 -6.82197,-7.8114 -11.79574,-7.16543 m -35.9549,0.97821 c -4.27634,0.77591 -7.96286,4.10835 -9.45178,8.54396 -0.34815,1.03704 -0.55844,2.03479 -0.56073,2.66059 -10e-4,0.41633 0.0527,0.5547 0.33982,0.86801 0.27039,0.29513 0.41925,0.37268 0.7151,0.37268 0.54087,0 0.72331,-0.13192 1.54881,-1.12031 1.81035,-2.16744 4.23372,-3.64618 7.16615,-4.37282 0.62965,-0.15593 1.16969,-0.19231 2.80676,-0.18888 1.77189,0.004 2.13832,0.034 2.9107,0.24065 2.59188,0.69348 4.28134,1.61815 6.39108,3.49794 1.05575,0.94078 1.12997,0.98704 1.58217,0.98704 0.40937,0 0.52247,-0.0509 0.82456,-0.37122 0.4415,-0.4682 0.45875,-0.91146 0.0808,-2.0746 -1.12582,-3.46405 -3.92249,-6.66125 -7.10244,-8.11962 -0.8729,-0.40022 -2.156,-0.80481 -3.06871,-0.9675 -0.83215,-0.14824 -3.26332,-0.12266 -4.18227,0.0441 m 24.03057,18.37309 c -5.26109,0.339 -5.356,0.35584 -5.69801,1.01626 -0.29336,0.56634 -0.19273,1.65057 0.20593,2.21827 0.4496,0.64025 3.59306,2.96756 4.90423,3.63089 1.03642,0.52424 1.10617,0.54399 1.92719,0.54399 0.78881,0 0.8965,-0.0269 1.45723,-0.36384 0.33296,-0.20011 0.89535,-0.6757 1.24963,-1.05679 0.72663,-0.78173 2.52545,-3.29793 2.68512,-3.75595 0.15635,-0.44846 0.0308,-1.46357 -0.2341,-1.89217 -0.28785,-0.46571 -0.69743,-0.67954 -1.26834,-0.66229 -0.24585,0.007 -2.59885,0.15219 -5.22888,0.32163 m 11.89824,9.19627 c -0.17703,0.14907 -0.56977,0.60605 -0.87259,1.01553 -0.85647,1.15815 -1.53508,1.60785 -2.99865,1.98707 -1.40878,0.36509 -2.65519,0.13587 -4.12873,-0.75907 -0.4943,-0.30022 -0.94577,-0.49263 -1.23351,-0.52559 -0.45085,-0.0518 -0.45813,-0.0473 -1.09152,0.66229 -1.90391,2.13282 -2.81673,2.67411 -5.08957,3.01736 -1.74144,0.26301 -2.76414,0.0679 -4.43613,-0.84649 -1.3225,-0.72331 -1.93821,-0.90378 -2.43439,-0.71333 -0.20676,0.0793 -0.21289,0.5233 -0.0138,0.99962 0.41269,0.98787 2.04227,2.45965 3.53879,3.19626 1.25555,0.61801 2.28594,0.86708 3.58734,0.86708 1.84871,0 3.30417,-0.53463 5.02024,-1.84393 1.1543,-0.8808 1.57843,-1.00482 2.56599,-0.75044 1.90215,0.49004 2.96518,0.42621 4.36845,-0.26249 0.69504,-0.34107 1.05004,-0.60386 1.66326,-1.23143 1.26075,-1.29017 2.17461,-3.12568 2.18033,-4.37916 0.003,-0.71114 -0.1604,-0.82456 -0.62549,-0.43328"
       stroke="none"
       fill="#cad3f5"
       fill-rule="evenodd"
       id="path1"
       style="fill:#cad3f5;stroke-width:0.103954;fill-opacity:1" />
    <path
       d="m 426.07587,285.47352 c -0.31051,0.18088 -0.46249,0.62196 -0.65949,1.91483 -0.25364,1.66357 -0.25447,4.54496 -0.002,6.13327 0.32818,2.06244 0.95585,4.04214 1.84154,5.80759 0.65137,1.29848 0.7151,1.34776 1.65245,1.27998 1.17218,-0.0848 2.99958,-0.76926 4.30701,-1.61316 1.57677,-1.01781 3.22703,-2.7109 3.96625,-4.06906 l 0.27787,-0.51051 0.8441,0.57725 c 1.79986,1.2306 5.43689,2.74147 6.23775,2.59126 0.5417,-0.10167 0.80065,-0.46904 1.01261,-1.43654 0.56707,-2.5897 0.43629,-5.73284 -0.36612,-8.79688 -0.40698,-1.55411 -0.75752,-1.73935 -2.26547,-1.19744 -2.15288,0.77352 -4.11636,2.10475 -5.47223,3.7099 l -0.33494,0.39658 -0.63183,-0.47496 c -2.07679,-1.56118 -4.74653,-2.84626 -8.19582,-3.94515 -1.54527,-0.49222 -1.89674,-0.55054 -2.21192,-0.36696"
       id="path12"
       style="fill:#ed8796;fill-opacity:1;stroke-width:0.103954" />
    <path
       d="m 419.60475,159.64894 c -22.19288,0.94484 -42.64901,10.80423 -57.23268,27.58507 -10.35015,11.90946 -17.00288,26.78565 -18.96095,42.39909 -0.53578,4.2726 -0.80544,10.13923 -0.60876,13.24548 l 0.0845,1.33372 15.84297,-15.91958 c 11.69261,-11.74927 15.86812,-15.88392 15.93922,-15.7834 0.0659,0.0931 0.0795,0.0541 0.043,-0.1236 -0.87155,-4.24318 -1.44776,-9.63443 -1.46107,-13.66992 -0.01,-2.88607 0.0818,-4.0438 0.4706,-5.96819 0.23234,-1.14994 0.49981,-1.73208 1.10659,-2.40799 0.92581,-1.03132 2.02668,-1.41054 3.76603,-1.29744 3.5731,0.23254 7.16263,1.05544 10.6274,2.43636 0.88943,0.35459 3.11934,1.45317 3.72311,1.83427 l 0.38754,0.2447 16.87855,-16.91223 16.87856,-16.91214 -1.09152,-0.0652 c -1.09432,-0.0655 -5.02876,-0.0771 -6.39315,-0.019"
       id="path2"
       style="fill:#ed8796;fill-opacity:1;stroke-width:0.103954" />
    <path
       d="m 484.10514,215.53261 c -5.86206,5.87588 -10.62647,10.71752 -10.58769,10.75921 0.30157,0.32382 1.95121,4.36263 2.62088,6.41686 2.1797,6.68651 2.51589,14.30902 0.94224,21.36249 -0.65169,2.92121 -1.92065,6.5863 -3.05915,8.83607 -0.38962,0.76988 -0.21311,0.59805 14.0719,-13.70183 l 14.46652,-14.48138 -0.0247,-0.90378 c -0.0135,-0.497 -0.12049,-1.76908 -0.23754,-2.82681 -0.82508,-7.45556 -2.64562,-14.6475 -5.43636,-21.47643 -0.70231,-1.71846 -1.69289,-3.95804 -1.94965,-4.40805 -0.14752,-0.25874 -0.197,-0.21103 -10.80641,10.42365"
       stroke="none"
       fill="#7dc4e4"
       fill-rule="evenodd"
       id="path3"
       style="stroke-width:0.103954" />
    <path
       d="m 488.14717,249.15686 c -10.49101,10.50068 -14.47608,14.55332 -14.64563,14.89387 -0.42933,0.86209 -1.59018,2.8475 -2.36952,4.05274 -1.83676,2.84054 -3.44575,4.79539 -6.24866,7.59133 -2.86881,2.86174 -4.88188,4.49735 -8.16713,6.63589 -0.74326,0.4838 -1.36657,0.89151 -1.38518,0.90596 -0.0185,0.0145 0.1079,0.76749 0.28099,1.67323 1.53986,8.05985 2.37607,15.49774 2.71402,24.14098 0.0545,1.39433 0.12142,2.55736 0.14855,2.5846 0.0595,0.0594 1.97336,-0.94806 3.9071,-2.05652 15.6333,-8.96206 27.941,-23.10216 34.63012,-39.78601 3.15229,-7.86254 4.96264,-15.81407 5.61454,-24.66178 0.13919,-1.88905 0.15208,-9.11175 0.0177,-9.90409 l -0.0842,-0.49638 -14.41267,14.42618"
       stroke="none"
       fill="#c6a0f6"
       fill-rule="evenodd"
       id="path4"
       style="stroke-width:0.103954" />
    <path
       d="m 410.23664,176.61295 -16.85267,16.90516 1.20763,0.79535 c 1.8536,1.22084 3.32611,2.4531 5.27514,4.4144 l 1.78041,1.79164 1.85797,-0.60657 c 3.85907,-1.25981 7.92387,-2.06868 12.82508,-2.55206 2.01348,-0.19855 7.83094,-0.30604 9.56375,-0.17662 l 1.29942,0.097 14.86539,-14.91622 c 8.17596,-8.20393 14.87848,-14.94917 14.89459,-14.9894 0.078,-0.19512 -5.42389,-2.47587 -8.43408,-3.49618 -6.96989,-2.36255 -12.91261,-3.53713 -20.91009,-4.13299 l -0.51976,-0.0387 -16.85278,16.90517 m -44.84824,45.00293 c -5.05756,5.0719 -12.19721,12.23889 -15.86595,15.92665 l -6.6704,6.70501 0.14492,1.81919 c 0.76239,9.57518 3.18316,18.88653 7.12883,27.42061 l 0.3497,0.75637 8.71018,-8.71309 8.71018,-8.7132 -0.15333,-1.24318 c -0.56696,-4.59964 -0.47486,-9.83434 0.25968,-14.75717 1.10284,-7.3907 3.62986,-14.21744 7.40213,-19.99706 l 0.83901,-1.28539 -0.38463,-1.57334 c -0.21144,-0.86531 -0.56675,-2.45383 -0.78953,-3.53006 -0.22277,-1.07624 -0.42309,-1.97481 -0.44513,-1.99695 -0.0221,-0.022 -4.17811,4.1096 -9.23566,9.18161"
       stroke="none"
       fill="#f5a97f"
       fill-rule="evenodd"
       id="path5"
       style="stroke-width:0.103954" />
    <path
       d="m 442.11749,182.3171 -14.87589,14.94335 1.32729,0.12578 c 2.78357,0.26384 6.15988,0.84556 8.29218,1.42864 l 0.93558,0.25583 0.20791,-0.24024 c 0.11435,-0.13212 0.60553,-0.74919 1.09151,-1.37125 1.09724,-1.40452 3.77831,-4.12198 5.09374,-5.16286 3.38452,-2.67796 7.24287,-4.559 11.99501,-5.84782 1.97939,-0.53682 3.52175,-0.22381 4.66742,0.94733 0.7993,0.81697 1.83583,3.13452 2.61912,5.85572 0.35136,1.22104 0.88548,3.74878 0.88548,4.1912 0,0.17423 1.86191,-1.62802 7.38435,-7.14754 l 7.38446,-7.38041 -1.17322,-1.11927 c -4.74414,-4.52635 -10.31648,-8.67619 -15.8306,-11.7895 -1.89466,-1.06979 -4.87969,-2.63231 -5.02866,-2.63231 -0.0548,0 -6.7939,6.72456 -14.97568,14.94335 m -82.97983,83.26945 -8.69262,8.70363 1.10909,2.13105 c 3.69243,7.09474 7.52084,12.52882 12.94234,18.3705 l 1.46814,1.58197 7.74185,-7.74539 7.74185,-7.74539 -0.51623,-0.43764 c -6.14647,-5.21099 -10.35733,-12.00209 -12.26062,-19.77304 -0.19605,-0.80045 -0.43473,-1.92315 -0.53037,-2.49489 -0.0957,-0.57175 -0.20479,-1.09692 -0.24242,-1.16699 -0.0429,-0.08 -3.30344,3.11175 -8.76101,8.57619"
       stroke="none"
       fill="#eed49f"
       fill-rule="evenodd"
       id="path6"
       style="stroke-width:0.103954" />
    <path
       d="m 471.71905,190.32154 -7.34662,7.35472 0.0908,0.57175 c 0.30178,1.90163 0.39731,5.87817 0.2025,8.42545 -0.12807,1.67438 -0.44773,4.02758 -0.73921,5.44146 l -0.21207,1.02852 1.18507,1.20649 c 3.2445,3.30281 6.02693,7.03704 8.02513,10.77012 0.27537,0.51457 0.5205,0.957 0.54472,0.98309 0.0744,0.0806 21.24201,-21.14024 21.24201,-21.29534 0,-0.11736 -1.01729,-2.11483 -2.05475,-4.03465 -2.53356,-4.68831 -7.4802,-11.50539 -11.18573,-15.41541 -1.69559,-1.78914 -2.28605,-2.39093 -2.34593,-2.39093 -0.0325,0 -3.36519,3.30957 -7.40587,7.35473 m -98.05781,98.32933 -7.68852,7.72813 1.4513,1.38581 c 4.70962,4.49714 9.3339,8.00579 14.91331,11.31546 1.46564,0.86937 1.72542,0.99131 1.78551,0.83777 0.0387,-0.0988 0.21757,-1.20878 0.39762,-2.46662 1.02374,-7.15326 2.52556,-13.88468 4.42625,-19.83915 0.25271,-0.79161 0.43567,-1.47771 0.40656,-1.5248 -0.029,-0.047 -0.48869,-0.32049 -1.02135,-0.60761 -1.85931,-1.00232 -3.83672,-2.28542 -5.6739,-3.68152 -0.59544,-0.45261 -1.1334,-0.83475 -1.19546,-0.8492 -0.0621,-0.0145 -3.57258,3.45127 -7.80132,7.70173"
       stroke="none"
       fill="#a6da95"
       fill-rule="evenodd"
       id="path8"
       style="stroke-width:0.103954" />
    <g
       id="g2"
       transform="matrix(0.10395375,0,0,0.10395375,65.406547,-121.64162)">
      <path
         d="m 3596.1389,1711.7422 c -15.393,1.999 -32.218,8.21 -44.9,16.576 -14.306,9.438 -30.231,28.085 -37.302,43.68 -4.083,9.004 -8.083,23.134 -8.232,29.073 -0.108,4.359 0.244,5.227 3.194,7.863 2.833,2.531 3.894,2.885 7.284,2.43 3.436,-0.461 5.092,-1.736 12.342,-9.506 14.071,-15.08 28.212,-24.197 47.406,-30.567 14.268,-4.735 24.195,-6.011 41.377,-5.318 28.105,1.134 51.646,10.701 73.125,29.718 8.479,7.507 10.727,8.513 15.712,7.028 7.633,-2.274 8.624,-8.575 3.465,-22.048 -17.6,-45.97 -65.625,-75.143 -113.471,-68.929 m -345.874,9.41 c -41.137,7.464 -76.6,39.521 -90.923,82.19 -3.349,9.976 -5.372,19.574 -5.394,25.594 -0.014,4.005 0.507,5.336 3.269,8.35 2.601,2.839 4.033,3.585 6.879,3.585 5.203,0 6.958,-1.269 14.899,-10.777 17.415,-20.85 40.727,-35.075 68.936,-42.065 6.057,-1.5 11.252,-1.85 27,-1.817 17.045,0.035 20.57,0.327 28,2.315 24.933,6.671 41.185,15.566 61.48,33.649 10.156,9.05 10.87,9.495 15.22,9.495 3.938,0 5.026,-0.49 7.932,-3.571 4.247,-4.504 4.413,-8.768 0.777,-19.957 -10.83,-33.323 -37.733,-64.079 -68.323,-78.108 -8.397,-3.85 -20.74,-7.742 -29.52,-9.307 -8.005,-1.426 -31.392,-1.18 -40.232,0.424 m 231.166,176.743 c -50.61,3.261 -51.523,3.423 -54.813,9.776 -2.822,5.448 -1.854,15.878 1.981,21.339 4.325,6.159 34.564,28.547 47.177,34.928 9.97,5.043 10.641,5.233 18.539,5.233 7.588,0 8.624,-0.259 14.018,-3.5 3.203,-1.925 8.613,-6.5 12.021,-10.166 6.99,-7.52 24.294,-31.725 25.83,-36.131 1.504,-4.314 0.296,-14.079 -2.252,-18.202 -2.769,-4.48 -6.709,-6.537 -12.201,-6.371 -2.365,0.072 -25,1.464 -50.3,3.094 m 114.457,88.465 c -1.703,1.434 -5.481,5.83 -8.394,9.769 -8.239,11.141 -14.767,15.467 -28.846,19.115 -13.552,3.512 -25.542,1.307 -39.717,-7.302 -4.755,-2.888 -9.098,-4.739 -11.866,-5.056 -4.337,-0.498 -4.407,-0.455 -10.5,6.371 -18.315,20.517 -27.096,25.724 -48.96,29.026 -16.752,2.53 -26.59,0.653 -42.674,-8.143 -12.722,-6.958 -18.645,-8.694 -23.418,-6.862 -1.989,0.763 -2.048,5.034 -0.133,9.616 3.97,9.503 19.646,23.661 34.042,30.747 12.078,5.945 21.99,8.341 34.509,8.341 17.784,0 31.785,-5.143 48.293,-17.738 11.104,-8.473 15.184,-9.666 24.684,-7.219 18.298,4.714 28.524,4.1 42.023,-2.525 6.686,-3.281 10.101,-5.809 16,-11.846 12.128,-12.411 20.919,-30.068 20.974,-42.126 0.031,-6.841 -1.543,-7.932 -6.017,-4.168"
         stroke="none"
         fill="#cad3f5"
         fill-rule="evenodd"
         id="path1-3" />
      <path
         d="m 3316.4309,1126.3612 c -213.488,9.089 -410.269,103.933 -550.559,265.359 -99.565,114.565 -163.562,257.669 -182.398,407.865 -5.154,41.101 -7.748,97.536 -5.856,127.417 l 0.813,12.83 152.404,-153.141 c 112.479,-113.024 152.646,-152.798 153.33,-151.831 0.634,0.896 0.765,0.52 0.414,-1.189 -8.384,-40.818 -13.927,-92.68 -14.055,-131.5 -0.092,-27.763 0.787,-38.9 4.527,-57.412 2.235,-11.062 4.808,-16.662 10.645,-23.164 8.906,-9.921 19.496,-13.569 36.228,-12.481 34.372,2.237 68.902,10.153 102.232,23.437 8.556,3.411 30.007,13.979 35.815,17.645 l 3.728,2.354 162.366,-162.69 162.366,-162.689 -10.5,-0.627 c -10.527,-0.63 -48.375,-0.742 -61.5,-0.183 m 62.25,1210.39 c -2.987,1.74 -4.449,5.983 -6.344,18.42 -2.44,16.003 -2.448,43.721 -0.017,59 3.157,19.84 9.195,38.884 17.715,55.867 6.266,12.491 6.879,12.965 15.896,12.313 11.276,-0.816 28.855,-7.4 41.432,-15.518 15.168,-9.791 31.043,-26.078 38.154,-39.143 l 2.673,-4.911 8.12,5.553 c 17.314,11.838 52.301,26.372 60.005,24.927 5.211,-0.978 7.702,-4.512 9.741,-13.819 5.455,-24.912 4.197,-55.148 -3.522,-84.623 -3.915,-14.95 -7.287,-16.732 -21.793,-11.519 -20.71,7.441 -39.598,20.247 -52.641,35.688 l -3.222,3.815 -6.078,-4.569 c -19.978,-15.018 -45.66,-27.38 -78.841,-37.951 -14.865,-4.735 -18.246,-5.296 -21.278,-3.53"
         stroke="none"
         fill="#ed8796"
         fill-rule="evenodd"
         id="path2-6" />
      <path
         d="m 3936.9029,1663.9432 c -56.391,56.524 -102.223,103.099 -101.85,103.5 2.901,3.115 18.77,41.967 25.212,61.728 20.968,64.322 24.202,137.648 9.064,205.5 -6.269,28.101 -18.476,63.358 -29.428,85 -3.748,7.406 -2.05,5.753 135.367,-131.807 l 139.163,-139.306 -0.238,-8.694 c -0.13,-4.781 -1.159,-17.018 -2.285,-27.193 -7.937,-71.72 -25.45,-140.904 -52.296,-206.596 -6.756,-16.531 -16.285,-38.075 -18.755,-42.404 -1.419,-2.489 -1.895,-2.03 -103.954,100.272"
         stroke="none"
         fill="#7dc4e4"
         fill-rule="evenodd"
         id="path3-7" />
      <path
         d="m 3975.7859,1987.3972 c -100.92,101.013 -139.255,139.998 -140.886,143.274 -4.13,8.293 -15.297,27.392 -22.794,38.986 -17.669,27.325 -33.147,46.13 -60.11,73.026 -27.597,27.529 -46.962,43.263 -78.565,63.835 -7.15,4.654 -13.146,8.576 -13.325,8.715 -0.178,0.14 1.038,7.383 2.703,16.096 14.813,77.533 22.857,149.083 26.108,232.228 0.524,13.413 1.168,24.601 1.429,24.863 0.572,0.571 18.983,-9.12 37.585,-19.783 150.387,-86.212 268.783,-222.235 333.13,-382.728 30.324,-75.635 47.739,-152.126 54.01,-237.238 1.339,-18.172 1.463,-87.652 0.17,-95.274 l -0.81,-4.775 -138.645,138.775"
         stroke="none"
         fill="#c6a0f6"
         fill-rule="evenodd"
         id="path4-5" />
      <path
         d="m 3226.3129,1289.5492 -162.117,162.622 11.617,7.651 c 17.831,11.744 31.996,23.598 50.745,42.465 l 17.127,17.235 17.873,-5.835 c 37.123,-12.119 76.225,-19.9 123.373,-24.55 19.369,-1.91 75.331,-2.944 92,-1.699 l 12.5,0.933 143,-143.489 c 78.65,-78.919 143.126,-143.806 143.281,-144.193 0.75,-1.877 -52.176,-23.817 -81.133,-33.632 -67.048,-22.727 -124.215,-34.026 -201.148,-39.758 l -5,-0.372 -162.118,162.622 m -431.425,432.913 c -48.652,48.79 -117.333,117.734 -152.625,153.209 l -64.167,64.5 1.394,17.5 c 7.334,92.11 30.621,181.682 68.577,263.777 l 3.364,7.276 83.789,-83.817 83.789,-83.818 -1.475,-11.959 c -5.454,-44.247 -4.568,-94.603 2.498,-141.959 10.609,-71.096 34.918,-136.767 71.206,-192.365 l 8.071,-12.365 -3.7,-15.135 c -2.034,-8.324 -5.452,-23.605 -7.595,-33.958 -2.143,-10.353 -4.07,-18.997 -4.282,-19.21 -0.213,-0.212 -40.192,39.533 -88.844,88.324"
         stroke="none"
         fill="#f5a97f"
         fill-rule="evenodd"
         id="path5-3" />
      <path
         d="m 3532.9959,1344.4212 -143.101,143.75 12.768,1.21 c 26.777,2.538 59.256,8.134 79.768,13.743 l 9,2.461 2,-2.311 c 1.1,-1.271 5.825,-7.207 10.5,-13.191 10.555,-13.511 36.346,-39.652 49,-49.665 32.558,-25.761 69.674,-43.856 115.388,-56.254 19.041,-5.164 33.878,-2.153 44.899,9.113 7.689,7.859 17.66,30.153 25.195,56.33 3.38,11.746 8.518,36.062 8.518,40.318 0,1.676 17.911,-15.661 71.035,-68.757 l 71.036,-70.997 -11.286,-10.767 c -45.637,-43.542 -99.241,-83.462 -152.285,-113.411 -18.226,-10.291 -46.941,-25.322 -48.374,-25.322 -0.527,0 -65.355,64.688 -144.061,143.75 m -798.238,801.024 -83.62,83.726 10.669,20.5 c 35.52,68.249 72.348,120.523 124.501,176.718 l 14.123,15.218 74.474,-74.508 74.474,-74.508 -4.966,-4.21 c -59.127,-50.128 -99.634,-115.456 -117.943,-190.21 -1.886,-7.7 -4.182,-18.5 -5.102,-24 -0.921,-5.5 -1.97,-10.552 -2.332,-11.226 -0.413,-0.77 -31.778,29.934 -84.278,82.5"
         stroke="none"
         fill="#eed49f"
         fill-rule="evenodd"
         id="path6-5" />
      <path
         d=""
         stroke="none"
         fill="#000000"
         fill-rule="evenodd"
         id="path7-6" />
      <path
         d="m 3817.7529,1421.4212 -70.672,70.75 0.873,5.5 c 2.903,18.293 3.822,56.546 1.948,81.05 -1.232,16.107 -4.307,38.744 -7.111,52.345 l -2.04,9.894 11.4,11.606 c 31.211,31.772 57.977,67.694 77.199,103.605 2.649,4.95 5.007,9.206 5.24,9.457 0.716,0.775 204.341,-203.362 204.341,-204.854 0,-1.129 -9.786,-20.344 -19.766,-38.812 -24.372,-45.1 -71.957,-110.678 -107.603,-148.291 -16.311,-17.211 -21.991,-23 -22.567,-23 -0.313,0 -32.372,31.837 -71.242,70.75 m -943.283,945.895 -73.961,74.342 13.961,13.331 c 45.305,43.261 89.789,77.013 143.461,108.851 14.099,8.363 16.598,9.536 17.176,8.059 0.372,-0.95 2.093,-11.628 3.825,-23.728 9.848,-68.812 24.295,-133.566 42.579,-190.846 2.431,-7.615 4.191,-14.215 3.911,-14.668 -0.279,-0.452 -4.701,-3.083 -9.825,-5.845 -17.886,-9.642 -36.908,-21.985 -54.581,-35.415 -5.728,-4.354 -10.903,-8.03 -11.5,-8.169 -0.597,-0.14 -34.367,33.2 -75.046,74.088"
         stroke="none"
         fill="#a6da95"
         fill-rule="evenodd"
         id="path8-2" />
      <path
         d=""
         stroke="none"
         fill="#000000"
         fill-rule="evenodd"
         id="path9-9" />
      <path
         d="m 3668.0879,1384.6892 c -69.272,18.651 -120.499,51.716 -163.877,105.779 -4.282,5.337 -8.737,11.021 -9.901,12.633 l -2.116,2.929 -14.882,-3.609 c -19.166,-4.649 -22.444,-5.329 -36.881,-7.657 -73.224,-11.807 -149.869,-10.107 -224.329,4.974 -19.412,3.931 -33.985,7.771 -55.213,14.549 l -17.541,5.6 -18.459,-18.45 c -20.837,-20.829 -29.119,-27.719 -50.242,-41.804 -43.959,-29.311 -97.139,-46.902 -152.723,-50.519 -16.732,-1.088 -27.322,2.56 -36.228,12.481 -5.837,6.502 -8.41,12.102 -10.645,23.164 -3.74,18.512 -4.619,29.649 -4.527,57.412 0.174,52.736 9.476,119.834 25.838,186.381 l 3.536,14.38 -6.326,9.12 c -13.826,19.929 -31.595,53.469 -41.685,78.682 -38.529,96.283 -48.037,210.304 -25.468,305.437 10.581,44.606 31.049,89.565 57.362,126 33.865,46.892 80.366,86.894 134.9,116.045 3.987,2.132 7.25,4.413 7.25,5.07 0,0.657 -1.988,7.424 -4.418,15.039 -15.967,50.037 -27.701,100.095 -37.94,161.846 -5.427,32.737 -8.036,52.031 -7.296,53.96 0.71,1.85 49.581,26.201 69.154,34.458 76.22,32.152 151.206,50.893 234.5,58.607 23.84,2.208 83.885,3.057 110,1.556 99.933,-5.744 191.364,-28.932 284.267,-72.091 l 15.767,-7.325 -0.556,-13.583 c -4.02,-98.134 -11.072,-162.925 -26.607,-244.424 -1.661,-8.713 -2.874,-15.955 -2.696,-16.093 0.179,-0.138 7.525,-4.991 16.325,-10.785 31.592,-20.8 48.571,-34.714 76.533,-62.717 32.34,-32.387 53.136,-59.53 73.599,-96.063 43.284,-77.273 60.277,-164.178 48.787,-249.5 -11.918,-88.498 -54.847,-173.375 -123.247,-243.679 l -11.363,-11.68 2.602,-14.32 c 12.045,-66.278 9.204,-131.488 -8.111,-186.177 -4.608,-14.554 -14.239,-36.43 -18.733,-42.553 -7.049,-9.603 -17.226,-15.045 -29.372,-15.707 -6.326,-0.345 -9.713,0.124 -19.038,2.634 m -77.502,327.579 c -40.771,7.366 -73.29,37.888 -83.536,78.404 -2.52,9.965 -2.603,12.162 -0.609,16.019 1.882,3.638 4.314,4.98 9.029,4.98 3.328,0 4.652,-0.982 14.189,-10.518 25.421,-25.422 54.798,-37.036 88.772,-35.097 24.579,1.404 48.236,10.652 67.29,26.305 12.315,10.117 14.191,11.31 17.781,11.31 4.36,0 9.168,-4.09 9.996,-8.503 1.246,-6.642 -6.859,-25.235 -17.354,-39.811 -23.85,-33.124 -65.841,-50.265 -105.558,-43.089 m -331.155,6.991 c -16.041,2.266 -27.567,5.822 -40.5,12.495 -22.517,11.618 -40.963,30.621 -52.827,54.421 -5.597,11.227 -10.428,25.78 -12.196,36.736 -1.436,8.904 0.016,13.566 5.213,16.734 6.33,3.86 11.197,2.098 17.78,-6.435 6.429,-8.333 19.932,-20.69 29.483,-26.98 41.001,-27 93.826,-27.157 136.449,-0.405 7.828,4.913 14.031,9.867 23.792,19.002 8.253,7.723 11.953,9.054 17.65,6.351 7.682,-3.646 8.988,-9.737 4.779,-22.3 -15.023,-44.839 -51.507,-78.657 -94.623,-87.706 -7.737,-1.624 -28.869,-2.778 -35,-1.913 m 218.209,178.507 c -31.715,2.112 -43.633,3.25 -46.044,4.394 -8.909,4.227 -9.947,19.149 -1.979,28.458 6.364,7.435 34.259,27.978 46.089,33.943 16.205,8.171 26.849,7.389 38.668,-2.84 10.773,-9.325 30.577,-36.271 32.62,-44.387 1.676,-6.656 -0.207,-13.679 -5.028,-18.747 l -3.725,-3.916 -8.905,0.122 c -4.898,0.068 -28.161,1.405 -51.696,2.973 m 118.008,87.913 c -1.404,1.104 -4.574,4.817 -7.043,8.25 -9.249,12.856 -16.151,17.504 -31.514,21.224 -13.196,3.196 -23.25,1.081 -39.618,-8.331 -4.927,-2.833 -9.877,-5.135 -11,-5.116 -3.465,0.061 -6.062,2.143 -13.967,11.201 -8.825,10.113 -15.483,15.434 -24.589,19.654 -11.982,5.552 -34.762,7.8 -46.054,4.544 -2.988,-0.861 -11.102,-4.445 -18.033,-7.964 -14.929,-7.581 -19.653,-8.716 -22.875,-5.494 -4.184,4.184 -0.545,11.68 11.418,23.524 10.718,10.611 20.898,16.993 34.558,21.665 8.762,2.997 10.51,3.253 22.5,3.292 10.925,0.036 14.191,-0.331 20.465,-2.301 10.689,-3.357 18.256,-7.392 28.607,-15.257 11.248,-8.547 15.373,-9.654 25.32,-6.793 9.018,2.593 21.243,3.432 28.371,1.947 13.149,-2.739 27.666,-13.088 37.304,-26.594 9.346,-13.098 15.417,-30.808 12.646,-36.891 -1.408,-3.091 -3.094,-3.236 -6.496,-0.56 m -216.967,351.072 c -2.987,1.74 -4.449,5.983 -6.344,18.42 -2.44,16.003 -2.448,43.721 -0.017,59 3.157,19.84 9.195,38.884 17.715,55.867 6.266,12.491 6.879,12.965 15.896,12.313 11.276,-0.816 28.855,-7.4 41.432,-15.518 15.168,-9.791 31.043,-26.078 38.154,-39.143 l 2.673,-4.911 8.12,5.553 c 17.314,11.838 52.301,26.372 60.005,24.927 5.211,-0.978 7.702,-4.512 9.741,-13.819 5.455,-24.912 4.197,-55.148 -3.522,-84.623 -3.915,-14.95 -7.287,-16.732 -21.793,-11.519 -20.71,7.441 -39.598,20.247 -52.641,35.688 l -3.222,3.815 -6.078,-4.569 c -19.978,-15.018 -45.66,-27.38 -78.841,-37.951 -14.865,-4.735 -18.246,-5.296 -21.278,-3.53"
         stroke="none"
         fill="#24243c"
         fill-rule="evenodd"
         id="path10-1" />
      <path
         d=""
         stroke="none"
         fill="#dcafa4"
         fill-rule="evenodd"
         id="path11-2" />
    </g>
    <rect
       style="fill:#24243c;fill-opacity:1;stroke-width:0"
       id="rect12"
       width="77.083275"
       height="97.975021"
       x="396.04074"
       y="397.33554" />
    <rect
       style="fill:#313244;fill-opacity:1;stroke-width:0"
       id="rect13"
       width="77.083275"
       height="24.493752"
       x="473.12399"
       y="470.8168" />
    <rect
       style="fill:#1e1e2e;fill-opacity:1;stroke-width:0"
       id="rect14"
       width="77.083275"
       height="24.493752"
       x="473.12399"
       y="446.32303" />
    <rect
       style="fill:#181825;fill-opacity:1;stroke-width:0"
       id="rect15"
       width="77.083275"
       height="24.493752"
       x="473.12399"
       y="421.82925" />
    <rect
       style="fill:#11111b;fill-opacity:1;stroke-width:0"
       id="rect16"
       width="77.083275"
       height="24.49375"
       x="473.12399"
       y="397.33554" />
    <circle
       style="fill:url(#linearGradient14);stroke-width:0"
       id="path13"
       cx="150"
       cy="150"
       r="150" />
    <path
       id="path40"
       style="opacity:0.500454;mix-blend-mode:normal;fill:#000000;fill-opacity:1;stroke:none;stroke-width:7.37362px;stroke-linecap:butt;stroke-linejoin:miter;stroke-opacity:1;filter:url(#filter37)"
       d="m -1010.326,-1096.707 c -195.086,193.87601 -391.9554,392.55572 -583.8367,586.48962 136.8331,137.16368 278.7378,279.22388 417.2649,417.99238 l 427.82177,1.401 361.17043,-360.12175 -784.1683,-0.69506 -86.9442,87.75705 656.3077,1.40156 -182.30692,182.2961 h -355.53298 l -329.8063,-329.80702 498.29336,-498.28268 h 358.28204 l 274.5245,274.46088 -427.65111,-0.52432 V -855.1608 l -32.51813,32.5186 v -0.0852 l -88.2284,88.23867 h 32.51871 v 0.0403 l -32.51871,-0.0403 -89.08354,89.16925 h 121.60225 v 0.2034 h 88.22782 v -0.2034 h 452.65021 v 119.816 l 88.4202,-88.42062 -0.1901,-131.42204 c 0,0 -235.5163,-235.5168 -351.136,-351.13626 z m 433.1601,0.2247 h 5.0595 l -5.1453,-0.086 0.086,0.086 z"
       sodipodi:nodetypes="cccccccccccccccccccccccccccccccccccccc"
       transform="matrix(0.19430051,0,0,0.19430051,327.6514,259.98927)" />
    <circle
       style="fill:url(#linearGradient11);stroke-width:0"
       id="circle3"
       cx="672.48804"
       cy="150"
       r="150"
       inkscape:export-filename="circle3.png"
       inkscape:export-xdpi="96"
       inkscape:export-ydpi="96" />
    <path
       id="path7"
       style="fill:#1e1e2e;stroke:none;stroke-width:7.37362px;stroke-linecap:butt;stroke-linejoin:miter;stroke-opacity:1;filter:url(#filter40)"
       d="m -1010.326,-1096.707 c -195.086,193.87601 -391.9554,392.55572 -583.8367,586.48962 136.8331,137.16368 278.7378,279.22388 417.2649,417.99238 l 427.82177,1.401 361.17043,-360.12175 -784.1683,-0.69506 -86.9442,87.75705 656.3077,1.40156 -182.30692,182.2961 h -355.53298 l -329.8063,-329.80702 498.29336,-498.28268 h 358.28204 l 274.5245,274.46088 -427.65111,-0.52432 V -855.1608 l -32.51813,32.5186 v -0.0852 l -88.2284,88.23867 h 32.51871 v 0.0403 l -32.51871,-0.0403 -89.08354,89.16925 h 121.60225 v 0.2034 h 88.22782 v -0.2034 h 452.65021 v 119.816 l 88.4202,-88.42062 -0.1901,-131.42204 c 0,0 -235.5163,-235.5168 -351.136,-351.13626 z m 433.1601,0.2247 h 5.0595 l -5.1453,-0.086 0.086,0.086 z"
       sodipodi:nodetypes="cccccccccccccccccccccccccccccccccccccc"
       transform="matrix(0.19430051,0,0,0.19430051,847.74709,257.59692)" />
    <path
       id="path9"
       style="fill:url(#linearGradient12);stroke:none;stroke-width:1.43269px;stroke-linecap:butt;stroke-linejoin:miter;stroke-opacity:1"
       d="m 651.44023,44.506176 c -37.90532,37.67021 -76.15713,76.273774 -113.43977,113.955244 26.58674,26.65097 54.1589,54.25334 81.07478,81.21613 l 83.126,0.27221 70.17559,-69.97184 -152.3643,-0.13505 -16.8933,17.05125 127.52093,0.27232 -35.42235,35.42022 h -69.08023 l -64.08153,-64.08167 96.81866,-96.816585 h 69.61437 l 53.34026,53.327885 -83.09283,-0.10183 V 91.438729 l -6.31829,6.31838 v -0.01655 l -17.14283,17.144821 h 6.3184 v 0.008 l -6.3184,-0.008 -17.30898,17.32564 h 23.62738 v 0.0395 h 17.14272 v -0.0395 h 87.95017 v 23.28031 l 17.18008,-17.18019 -0.0368,-25.53537 c 0,0 -45.76093,-45.761029 -68.22591,-68.225951 z m 84.16323,0.04366 h 0.98306 l -0.99973,-0.0167 0.0166,0.0167 z"
       sodipodi:nodetypes="cccccccccccccccccccccccccccccccccccccc" />
    <path
       id="path3047"
       style="fill:#24243c;stroke:none;stroke-width:1.43269px;stroke-linecap:butt;stroke-linejoin:miter;stroke-opacity:1;fill-opacity:1"
       d="M 128.95219,44.506176 C 91.046875,82.176386 52.79506,120.77995 15.51242,158.46142 c 26.58674,26.65097 54.1589,54.25334 81.074782,81.21613 l 83.125998,0.27221 70.17559,-69.97184 -152.3643,-0.13505 -16.893302,17.05125 127.520932,0.27232 -35.42235,35.42022 H 103.64954 L 39.56801,158.50499 136.38667,61.688405 h 69.61437 l 53.34026,53.327885 -83.09283,-0.10183 V 91.438729 l -6.31829,6.31838 v -0.01655 l -17.14283,17.144821 h 6.3184 v 0.008 l -6.3184,-0.008 -17.30898,17.32564 h 23.62738 v 0.0395 h 17.14272 v -0.0395 h 87.95017 v 23.28031 l 17.18008,-17.18019 -0.0368,-25.53537 c 0,0 -45.76093,-45.761029 -68.22591,-68.225951 z m 84.16323,0.04366 h 0.98306 l -0.99973,-0.0167 0.0166,0.0167 z"
       sodipodi:nodetypes="cccccccccccccccccccccccccccccccccccccc" />
  </g>
</svg>
