<?xml version="1.0" encoding="UTF-8" standalone="no"?>
<!-- Created with Inkscape (http://www.inkscape.org/) -->

<svg
   width="300"
   height="300"
   viewBox="0 0 300 300"
   version="1.1"
   id="svg1"
   inkscape:version="1.4 (e7c3feb100, 2024-10-09)"
   sodipodi:docname="distributor-logo-text-garuda-sgs.svg"
   inkscape:export-filename="distributor-logo-text-garuda-sgs.png"
   inkscape:export-xdpi="96"
   inkscape:export-ydpi="96"
   xmlns:inkscape="http://www.inkscape.org/namespaces/inkscape"
   xmlns:sodipodi="http://sodipodi.sourceforge.net/DTD/sodipodi-0.dtd"
   xmlns:xlink="http://www.w3.org/1999/xlink"
   xmlns="http://www.w3.org/2000/svg"
   xmlns:svg="http://www.w3.org/2000/svg">
  <sodipodi:namedview
     id="namedview1"
     pagecolor="#505050"
     bordercolor="#ffffff"
     borderopacity="1"
     inkscape:showpageshadow="0"
     inkscape:pageopacity="0"
     inkscape:pagecheckerboard="1"
     inkscape:deskcolor="#505050"
     inkscape:document-units="px"
     inkscape:zoom="1.4872813"
     inkscape:cx="176.49654"
     inkscape:cy="172.46234"
     inkscape:window-width="1440"
     inkscape:window-height="864"
     inkscape:window-x="0"
     inkscape:window-y="0"
     inkscape:window-maximized="1"
     inkscape:current-layer="layer1" />
  <defs
     id="defs1">
    <linearGradient
       inkscape:collect="always"
       xlink:href="#linearGradient13"
       id="linearGradient75"
       x1="0"
       y1="0"
       x2="1544"
       y2="1544"
       gradientUnits="userSpaceOnUse"
       gradientTransform="scale(0.19430052)" />
    <linearGradient
       id="linearGradient13"
       inkscape:collect="always">
      <stop
         style="stop-color:#ed8796;stop-opacity:1;"
         offset="0"
         id="stop75" />
      <stop
         style="stop-color:#f19989;stop-opacity:1;"
         offset="0.1436958"
         id="stop76" />
      <stop
         style="stop-color:#ed8796;stop-opacity:1;"
         offset="0.26335675"
         id="stop77" />
      <stop
         style="stop-color:#f5a97f;stop-opacity:1"
         offset="0.26335675"
         id="stop78" />
      <stop
         style="stop-color:#f5a97f;stop-opacity:1;"
         offset="0.38047278"
         id="stop79" />
      <stop
         style="stop-color:#eed49f;stop-opacity:1;"
         offset="0.38047278"
         id="stop80" />
      <stop
         style="stop-color:#eed49f;stop-opacity:1;"
         offset="0.49968362"
         id="stop81" />
      <stop
         style="stop-color:#a6da95;stop-opacity:1"
         offset="0.49968362"
         id="stop82" />
      <stop
         style="stop-color:#a6da95;stop-opacity:1;"
         offset="0.61428893"
         id="stop83" />
      <stop
         style="stop-color:#7dc4e4;stop-opacity:1;"
         offset="0.61428893"
         id="stop84" />
      <stop
         style="stop-color:#79bedd;stop-opacity:1;"
         offset="0.73365229"
         id="stop85" />
      <stop
         style="stop-color:#c6a0f6;stop-opacity:1;"
         offset="0.73365229"
         id="stop86" />
      <stop
         style="stop-color:#c6a0f6;stop-opacity:1;"
         offset="0.85397512"
         id="stop87" />
      <stop
         style="stop-color:#c6a0f6;stop-opacity:1;"
         offset="1"
         id="stop88" />
    </linearGradient>
    <filter
       inkscape:collect="always"
       style="color-interpolation-filters:sRGB"
       id="filter20"
       x="-0.016732304"
       y="-0.061137125"
       width="1.0334646"
       height="1.1222742">
      <feGaussianBlur
         inkscape:collect="always"
         stdDeviation="1.3901133"
         id="feGaussianBlur20" />
    </filter>
    <filter
       inkscape:collect="always"
       style="color-interpolation-filters:sRGB"
       id="filter19-5"
       x="-0.01685649"
       y="-0.067797792"
       width="1.033713"
       height="1.1355956">
      <feGaussianBlur
         inkscape:collect="always"
         stdDeviation="0.83259209"
         id="feGaussianBlur19-6" />
    </filter>
    <filter
       inkscape:collect="always"
       style="color-interpolation-filters:sRGB"
       id="filter73"
       x="-0.023831994"
       y="-0.031139379"
       width="1.047664"
       height="1.0622788">
      <feGaussianBlur
         inkscape:collect="always"
         stdDeviation="2.5479668"
         id="feGaussianBlur73" />
    </filter>
  </defs>
  <g
     inkscape:label="Ebene 1"
     inkscape:groupmode="layer"
     id="layer1">
    <circle
       style="fill:url(#linearGradient75);stroke-width:0"
       id="path13-2"
       cx="150"
       cy="150"
       r="150" />
    <g
       id="g74"
       transform="translate(280.37736,-0.67236993)">
      <path
         style="mix-blend-mode:normal;fill:#11111b;fill-opacity:1;stroke-width:2.0171;filter:url(#filter73)"
         d="m -156.05314,242.5072 c -10.53937,-3.46911 -19.859,-6.32299 -20.71029,-6.34192 -1.13017,-0.0251 -1.73753,0.50982 -2.25097,1.98266 -0.38674,1.10941 -0.78639,2.01711 -0.88811,2.01711 -0.74232,0 -8.16752,-3.69396 -17.64613,-8.77877 -6.1652,-3.30733 -11.5291,-6.01024 -11.91978,-6.00647 -0.39068,0.004 -2.03069,1.81917 -3.64447,4.03421 -1.61378,2.21504 -3.16419,4.02735 -3.44536,4.02735 -0.28116,0 -3.17521,-7.63978 -6.43122,-16.97729 -3.25601,-9.3375 -6.46598,-18.27653 -7.13326,-19.86449 -1.44731,-3.44427 -1.03816,-3.5729 -10.84524,3.4096 -3.62119,2.57823 -6.74788,4.5238 -6.9482,4.32348 -0.20032,-0.20032 2.12951,-5.98934 5.17739,-12.86448 3.04788,-6.87515 5.38466,-12.65721 5.19284,-12.84903 -0.19181,-0.19181 -3.57216,1.21846 -7.51189,3.13394 -3.93973,1.91547 -7.30601,3.33981 -7.48063,3.16519 -0.17462,-0.17462 0.92127,-4.02063 2.43533,-8.54668 1.51405,-4.52605 2.58622,-8.39579 2.3826,-8.5994 -0.20361,-0.20362 -2.71003,0.41648 -5.5698,1.37799 -2.85978,0.96152 -5.28145,1.66636 -5.38149,1.56632 -0.10005,-0.10005 3.59513,-4.35164 8.2115,-9.44798 4.61637,-5.09634 10.13136,-11.45311 12.25553,-14.12616 4.77878,-6.01359 13.22068,-19.16396 12.66138,-19.72326 -0.22702,-0.22702 -2.57677,-0.0554 -5.22166,0.3814 -2.64489,0.4368 -4.88998,0.70893 -4.98908,0.60473 -0.0991,-0.10419 9.98387,-6.54136 22.40659,-14.30482 12.42273,-7.76347 23.21006,-14.636776 23.97186,-15.274006 1.3422,-1.12274 1.26347,-1.15931 -2.54266,-1.18098 l -3.92775,-0.0224 3.59156,-2.90426 c 1.97536,-1.59735 15.02284,-11.753884 28.99439,-22.570088 l 25.40282,-19.665825 3.50899,0.395255 c 4.18836,0.471779 63.375067,4.40285 66.289877,4.40285 2.4573,0 4.00544,1.573792 15.87379,16.136826 l 8.49331,10.421701 9.54306,4.427375 9.54307,4.427376 11.26216,15.021856 c 7.2612488,9.68531 11.2621592,15.59468 11.2621592,16.6343 0,0.88685 -0.60192,6.65784 -1.3376,12.82442 l -1.3375998,11.21199 -7.5706694,7.17252 c -4.16387,3.94489 -7.6496,7.09361 -7.74606,6.99714 -0.0965,-0.0965 0.1518,-4.68563 0.55168,-10.19818 0.39989,-5.51254 0.62982,-11.53562 0.51096,-13.38463 l -0.21609,-3.36184 -5.04276,-0.42276 c -15.52488,-1.30152 -62.58674,-4.11522 -62.93901,-3.76295 -0.22826,0.22827 1.13679,13.8199 3.03346,30.20363 1.89666,16.38374 3.44357,30.56198 3.43757,31.50722 -0.006,1.00868 -1.82907,4.34166 -4.41226,8.06842 -2.52838,3.64767 -4.27674,6.83199 -4.10853,7.48294 0.34028,1.3168 -0.3991,2.48148 -5.826053,9.17709 -4.255676,5.25054 -4.287336,5.41202 -2.075244,10.58759 0.17085,0.39974 -2.84406,2.74976 -6.69981,5.22227 -3.85575,2.4725 -7.19744,4.98275 -7.42598,5.57831 -0.22854,0.59557 -0.22466,2.5217 0.009,4.2803 0.40834,3.07823 0.3649,3.18819 -1.16485,2.94892 -4.03783,-0.63154 -20.92685,-2.95595 -21.47776,-2.95595 -0.34016,0 -0.61848,1.21026 -0.61848,2.68947 0,2.13052 -0.24454,2.68 -1.17664,2.6439 -0.64715,-0.0251 -9.79976,-2.88394 -20.33912,-6.35306 z"
         id="path73" />
      <g
         id="g73">
        <path
           style="fill:#24243c;fill-opacity:1;stroke-width:2.0171"
           d="m -159.41499,239.14535 c -10.53937,-3.46911 -19.859,-6.32299 -20.71029,-6.34192 -1.13017,-0.0251 -1.73753,0.50982 -2.25097,1.98266 -0.38674,1.10941 -0.78639,2.01711 -0.88811,2.01711 -0.74232,0 -8.16752,-3.69396 -17.64613,-8.77877 -6.1652,-3.30733 -11.5291,-6.01024 -11.91978,-6.00647 -0.39068,0.004 -2.03069,1.81917 -3.64447,4.03421 -1.61378,2.21504 -3.16419,4.02735 -3.44536,4.02735 -0.28116,0 -3.17521,-7.63978 -6.43122,-16.97729 -3.25601,-9.3375 -6.46598,-18.27653 -7.13326,-19.86449 -1.44731,-3.44427 -1.03816,-3.5729 -10.84524,3.4096 -3.62119,2.57823 -6.74788,4.5238 -6.9482,4.32348 -0.20032,-0.20032 2.12951,-5.98934 5.17739,-12.86448 3.04788,-6.87515 5.38466,-12.65721 5.19284,-12.84903 -0.19181,-0.19181 -3.57216,1.21846 -7.51189,3.13394 -3.93973,1.91547 -7.30601,3.33981 -7.48063,3.16519 -0.17462,-0.17462 0.92127,-4.02063 2.43533,-8.54668 1.51405,-4.52605 2.58622,-8.39579 2.3826,-8.5994 -0.20361,-0.20362 -2.71003,0.41648 -5.5698,1.37799 -2.85978,0.96152 -5.28145,1.66636 -5.38149,1.56632 -0.10005,-0.10005 3.59513,-4.35164 8.2115,-9.44798 4.61637,-5.09634 10.13136,-11.45311 12.25553,-14.12616 4.77878,-6.01359 13.22068,-19.16396 12.66138,-19.72326 -0.22702,-0.22702 -2.57677,-0.0554 -5.22166,0.3814 -2.64489,0.4368 -4.88998,0.70893 -4.98908,0.60473 -0.0991,-0.10419 9.98387,-6.54136 22.40659,-14.30482 12.42273,-7.76347 23.21006,-14.636766 23.97186,-15.273996 1.3422,-1.12274 1.26347,-1.15931 -2.54266,-1.18098 l -3.92775,-0.0224 3.59156,-2.90426 c 1.97536,-1.59735 15.02284,-11.753884 28.99439,-22.570088 l 25.40282,-19.665825 3.50899,0.395255 c 4.18836,0.471779 63.375077,4.40285 66.289887,4.40285 2.4573,0 4.00544,1.573792 15.87379,16.136826 l 8.49331,10.421701 9.54306,4.427375 9.54307,4.427376 11.26216,15.021846 c 7.2612498,9.68531 11.2621602,15.59468 11.2621602,16.6343 0,0.88685 -0.60192,6.65784 -1.3376,12.82442 l -1.3375998,11.21199 -7.5706704,7.17252 c -4.16387,3.94489 -7.6496,7.09361 -7.74606,6.99714 -0.0965,-0.0965 0.1518,-4.68563 0.55168,-10.19818 0.39989,-5.51254 0.62982,-11.53562 0.51096,-13.38463 l -0.21609,-3.36184 -5.04276,-0.42276 c -15.52488,-1.30152 -62.58674,-4.11522 -62.93901,-3.76295 -0.22826,0.22827 1.13679,13.8199 3.03346,30.20363 1.89666,16.38374 3.44357,30.56198 3.43757,31.50722 -0.006,1.00868 -1.82907,4.34166 -4.41226,8.06842 -2.52838,3.64767 -4.27674,6.83199 -4.10853,7.48294 0.34028,1.3168 -0.3991,2.48148 -5.826053,9.17709 -4.255684,5.25054 -4.287344,5.41202 -2.075244,10.58759 0.17085,0.39974 -2.84407,2.74976 -6.69982,5.22227 -3.85575,2.4725 -7.19744,4.98275 -7.42598,5.57831 -0.22854,0.59557 -0.22466,2.5217 0.009,4.2803 0.40834,3.07823 0.3649,3.18819 -1.16485,2.94892 -4.03783,-0.63154 -20.92685,-2.95595 -21.47776,-2.95595 -0.34016,0 -0.61848,1.21026 -0.61848,2.68947 0,2.13052 -0.24454,2.68 -1.17664,2.6439 -0.64715,-0.0251 -9.79976,-2.88394 -20.33912,-6.35306 z"
           id="path72" />
        <g
           id="g254"
           transform="matrix(0.25012936,0,0,0.25012936,342.80707,-315.37967)">
          <path
             sodipodi:nodetypes="ccccc"
             inkscape:connector-curvature="0"
             id="path252"
             d="m -1882.0539,1569.7029 c 97.0343,-44.5251 183.304,91.9642 234.6707,36.5116 -22.3915,35.7888 -74.5208,39.0439 -110.8629,39.1674 0,0 -55.7633,-1.3279 -48.4609,-48.1291 -12.0493,-19.9041 -50.2125,-19.5077 -75.3469,-27.5499 z"
             style="fill:#000000;fill-opacity:1;stroke:none;stroke-width:3.75529px;stroke-linecap:butt;stroke-linejoin:miter;stroke-opacity:1" />
          <path
             inkscape:connector-curvature="0"
             id="path253"
             d="m -1791.1094,1583.6166 a 29.541294,29.541294 0 0 0 -12.2783,23.9253 29.541294,29.541294 0 0 0 29.5437,29.5437 29.541294,29.541294 0 0 0 29.5363,-29.5437 29.541294,29.541294 0 0 0 -0.88,-7.0557 24.064536,29.209369 0 0 1 -22.5171,19.0041 24.064536,29.209369 0 0 1 -24.0648,-29.2065 24.064536,29.209369 0 0 1 0.6602,-6.6672 z"
             style="fill:#ffffff;fill-opacity:1;stroke:none;stroke-width:4.12622;stroke-linecap:round;stroke-miterlimit:4;stroke-dasharray:none;stroke-opacity:1;paint-order:stroke fill markers" />
          <path
             style="fill:#000000;fill-opacity:1;stroke:none;stroke-width:2.09904px;stroke-linecap:butt;stroke-linejoin:miter;stroke-opacity:1"
             d="m -1530.465,1634.6159 c 0,0 -33.5846,8.3959 -29.3866,27.2874 0,0 13.6438,-1.0493 29.3866,-27.2874 z"
             id="path254"
             inkscape:connector-curvature="0" />
        </g>
      </g>
    </g>
    <path
       id="text1"
       style="font-style:normal;font-variant:normal;font-weight:bold;font-stretch:normal;font-size:27.3797px;font-family:'RobotoMono Nerd Font Mono';-inkscape-font-specification:'RobotoMono Nerd Font Mono, Bold';font-variant-ligatures:normal;font-variant-caps:normal;font-variant-numeric:normal;font-variant-east-asian:normal;text-align:start;writing-mode:lr-tb;direction:ltr;text-anchor:start;mix-blend-mode:normal;fill:#24243c;fill-opacity:1;stroke-width:0;filter:url(#filter20)"
       d="m 141.87091,8.9920006 -3.39648,0.2851562 -4.72657,19.9296882 3.94336,-0.332031 0.80469,-4.144532 5.82227,-0.488281 1.47265,3.953125 3.94336,-0.330078 z m 29.82617,0.8964844 -3.51758,19.144532 6.61329,1.216797 6.0625,1.113281 0.54882,-2.984375 -8.96875,-1.648438 2.97071,-16.160156 z m -49.48047,2.212891 c -0.81386,-0.04917 -1.65988,0.02347 -2.53906,0.216797 l -4.92187,1.082031 4.17968,19.011719 5.10547,-1.123047 c 0.84436,-0.18567 1.61268,-0.464324 2.30664,-0.835938 0.70267,-0.373527 1.31967,-0.823948 1.85157,-1.351562 0.45825,-0.44754 0.85661,-0.963745 1.19336,-1.548828 0.33483,-0.593788 0.6041,-1.219049 0.80664,-1.875 0.20462,-0.729417 0.3167,-1.506498 0.33593,-2.332031 0.0192,-0.825534 -0.0684,-1.677467 -0.26171,-2.556641 l -0.34376,-1.568359 c -0.20098,-0.913993 -0.49588,-1.752028 -0.88281,-2.515625 -0.37822,-0.765512 -0.82792,-1.441343 -1.34961,-2.029297 -0.44266,-0.477573 -0.93206,-0.899983 -1.46875,-1.265625 -0.52989,-0.376261 -1.10539,-0.665704 -1.72461,-0.867188 -0.71287,-0.253894 -1.47515,-0.400937 -2.28711,-0.441406 z m 68.64844,1.832031 -0.93945,2.886719 3.52344,1.144531 -4.14844,12.751953 -3.52149,-1.144531 -0.93359,2.873047 10.70313,3.480469 0.93554,-2.873047 -3.61133,-1.173828 4.14844,-12.751953 3.60938,1.173828 0.93945,-2.884766 z m -50.27734,0.222657 2.58398,6.974609 -4.02343,0.337891 z m -31.57617,0.916015 -3.50391,1.275391 4.40039,12.126953 c 0.20812,0.597662 0.3354,1.145695 0.38281,1.640625 0.0474,0.49493 0.009,0.935393 -0.11523,1.322266 -0.11102,0.372399 -0.30583,0.69408 -0.58594,0.966796 -0.27478,0.261293 -0.62562,0.469489 -1.05273,0.625 -0.39362,0.143315 -0.76691,0.203913 -1.11719,0.179688 -0.35333,-0.0326 -0.68415,-0.149471 -0.99414,-0.34961 -0.33589,-0.219164 -0.64669,-0.537152 -0.93164,-0.955078 -0.27658,-0.420975 -0.53075,-0.936608 -0.76172,-1.544922 l -4.42579,-12.117187 -3.529293,1.285156 4.400393,12.126953 c 0.37201,1.021729 0.84636,1.883676 1.42383,2.583985 0.5828,0.688885 1.23708,1.208285 1.96289,1.560547 0.72582,0.352261 1.50895,0.536323 2.34961,0.552734 0.63127,0.0099 1.28976,-0.108143 1.96094,-0.291016 a 123.79655,123.79655 0 0 1 0.95898,-0.310546 c 0.85593,-0.340039 1.59918,-0.752409 2.19336,-1.259766 0.66681,-0.565274 1.16722,-1.22086 1.50195,-1.96875 0.32942,-0.736466 0.48792,-1.552986 0.47461,-2.449219 -0.005,-0.899282 -0.19244,-1.861084 -0.56445,-2.882812 z m 12.58203,0.109375 c 0.40406,0.01153 0.78315,0.07361 1.13672,0.1875 0.46271,0.153767 0.88845,0.389066 1.27734,0.705078 0.39759,0.314098 0.74623,0.695273 1.04492,1.140625 0.24665,0.374666 0.46294,0.800357 0.65039,1.279297 0.19424,0.468322 0.35207,0.976995 0.47266,1.525391 l 0.34961,1.59375 c 0.12824,0.583214 0.20454,1.136143 0.22851,1.660156 0.0308,0.513395 0.014,0.991972 -0.0527,1.435547 -0.0881,0.512164 -0.22856,0.976348 -0.41992,1.392578 -0.18458,0.405612 -0.41821,0.757582 -0.69922,1.056641 -0.27422,0.28844 -0.59411,0.533125 -0.96094,0.732421 -0.36683,0.199297 -0.77587,0.347731 -1.22851,0.447266 l -1.41016,0.310547 -2.87695,-13.083984 1.22656,-0.269532 c 0.44394,-0.09762 0.86445,-0.13543 1.26172,-0.113281 z m 86.3457,4.716797 -8.41797,17.550781 3.41211,1.634766 5.42774,-11.31836 -0.54688,13.660157 3.375,1.61914 8.41797,-17.550781 -3.40039,-1.630859 -5.41602,11.265625 0.5586,-13.595703 z m -118.300785,3.875 c -0.417413,0.0096 -0.850107,0.06051 -1.294921,0.152344 -0.89376,0.175778 -1.817823,0.513856 -2.773438,1.013672 l -5.78125,3.023437 9.021484,17.248047 3.330078,-1.740234 -3.371093,-6.445313 2.523437,-1.318359 6.615235,4.746093 3.566413,-1.865234 -0.0801,-0.154297 -7.431644,-5.179687 c 0.36233,-0.461079 0.656562,-0.937248 0.882813,-1.427735 0.234148,-0.494617 0.385196,-1.011324 0.455078,-1.550781 0.06611,-0.527429 0.04363,-1.072712 -0.07031,-1.636719 -0.110179,-0.576035 -0.328195,-1.173046 -0.65039,-1.789062 -0.446117,-0.852946 -0.988125,-1.524985 -1.626954,-2.015625 -0.630931,-0.494771 -1.331389,-0.815492 -2.103515,-0.964844 -0.390012,-0.07261 -0.793524,-0.105317 -1.210938,-0.0957 z m -0.751953,3.339844 c 0.191363,4.93e-4 0.374669,0.01995 0.550782,0.05859 0.396208,0.08446 0.756029,0.269516 1.076171,0.554688 0.323909,0.273144 0.604169,0.63764 0.84375,1.095703 0.198274,0.379087 0.322517,0.75135 0.373047,1.117188 0.05843,0.361707 0.0428,0.706623 -0.04687,1.035156 -0.100252,0.404469 -0.308601,0.785987 -0.625,1.142578 -0.312632,0.344562 -0.724934,0.651426 -1.238281,0.919922 l -2.464844,1.289062 -2.824218,-5.402343 2.451171,-1.283204 c 0.458064,-0.239581 0.89537,-0.397341 1.308594,-0.472656 0.206612,-0.03766 0.404341,-0.05518 0.595703,-0.05469 z m 136.074228,1.388672 -7.08008,10.785156 c -0.5958,0.909582 -1.00146,1.80572 -1.2168,2.6875 -0.203,0.879208 -0.22844,1.713578 -0.0762,2.505859 0.15227,0.792281 0.47284,1.529643 0.96289,2.212891 0.44845,0.620275 1.04724,1.170328 1.75781,1.667969 a 123.79655,123.79655 0 0 1 0.93164,0.5625 c 0.62735,0.338789 1.25057,0.613436 1.86328,0.751953 0.85196,0.195802 1.67709,0.202955 2.47657,0.02344 0.78713,-0.176946 1.53611,-0.538815 2.24609,-1.085937 0.71743,-0.542239 1.3749,-1.268152 1.9707,-2.177735 l 7.05664,-10.798828 -3.11914,-2.042968 -7.08008,10.783203 c -0.35419,0.524463 -0.71589,0.954831 -1.08398,1.289062 -0.36809,0.334232 -0.74434,0.567559 -1.12891,0.699219 -0.36477,0.133972 -0.74082,0.170519 -1.12695,0.109375 -0.37379,-0.06372 -0.75062,-0.221639 -1.13086,-0.470703 -0.35041,-0.22953 -0.62028,-0.490057 -0.81055,-0.785156 -0.18538,-0.302556 -0.29117,-0.639688 -0.3164,-1.007813 -0.0255,-0.400259 0.0448,-0.837978 0.20898,-1.316406 0.17168,-0.473545 0.43025,-0.986014 0.7793,-1.535157 l 7.05859,-10.798828 z m -154.070322,5.248047 -2.785156,1.964843 6.015625,19.580078 3.232422,-2.28125 -1.404297,-3.984375 4.773438,-3.36914 3.271484,2.666015 3.232422,-2.28125 z m 168.890632,4.751953 -2.17383,10.878906 -10.66406,3.753906 3.35742,2.902344 7.32422,-3.037109 -1.93164,7.695312 3.3164,2.867188 2.16797,-11.095704 10.45899,-3.720703 -3.33789,-2.884765 -7.1836,3.017578 1.98242,-7.509766 z m -167.382819,0.351562 5.759766,4.705078 -3.298829,2.328125 z m -13.308594,5.583985 c -0.763213,0.0025 -1.538892,0.180484 -2.328125,0.535156 -0.782695,0.348613 -1.574811,0.895499 -2.378906,1.640625 -0.522989,0.484634 -0.9536,1.017663 -1.291016,1.597656 -0.337415,0.579993 -0.576556,1.195063 -0.714843,1.845703 -0.109742,0.563432 -0.150416,1.149368 -0.123047,1.75586 0.03391,0.600433 0.140327,1.21305 0.318359,1.83789 0.213421,0.689255 0.530168,1.384428 0.951172,2.087891 0.414946,0.696925 0.938335,1.386521 1.568359,2.066406 l 1.798828,1.941406 c 0.660315,0.712572 1.333888,1.31572 2.021485,1.808594 0.694134,0.486816 1.389231,0.855812 2.085937,1.109375 0.621614,0.238091 1.24492,0.384233 1.867188,0.439453 0.628805,0.04916 1.240638,0.01641 1.83789,-0.09961 0.597732,-0.128611 1.179436,-0.345961 1.746094,-0.652344 0.579253,-0.305903 1.131309,-0.700913 1.654297,-1.185547 0.601437,-0.557329 1.111246,-1.134699 1.53125,-1.730469 0.420004,-0.595769 0.758366,-1.181001 1.013672,-1.757812 0.254827,-0.564216 0.43387,-1.100429 0.535156,-1.607422 0.101286,-0.506993 0.138638,-0.950781 0.115235,-1.330078 l -5.22461,-5.619141 -5.109375,4.734375 1.908203,2.058594 2.363282,-2.189453 2.388672,2.597656 c 0.0068,0.151623 -0.02458,0.333199 -0.0957,0.544922 -0.07065,0.199127 -0.170303,0.41412 -0.298828,0.642578 -0.128524,0.228458 -0.282031,0.4551 -0.460937,0.681641 -0.178906,0.22654 -0.376064,0.440713 -0.591797,0.640625 -0.359075,0.320591 -0.727436,0.55895 -1.105469,0.714843 -0.377554,0.143298 -0.768826,0.206748 -1.171875,0.191407 -0.23931,-0.0091 -0.484387,-0.04355 -0.734375,-0.103516 -0.249508,-0.07256 -0.499778,-0.168268 -0.753906,-0.285156 -0.427106,-0.211767 -0.874168,-0.495225 -1.339844,-0.853516 -0.459139,-0.364349 -0.927673,-0.805814 -1.40625,-1.322265 l -1.818359,-1.960938 c -0.38165,-0.411853 -0.712774,-0.815515 -0.994141,-1.210937 -0.274829,-0.401481 -0.498802,-0.787702 -0.673828,-1.160157 -0.22763,-0.481672 -0.38106,-0.942726 -0.458984,-1.380859 -0.07139,-0.444191 -0.07453,-0.854528 -0.0098,-1.230469 0.05487,-0.281716 0.149615,-0.545857 0.285156,-0.792968 0.135542,-0.247112 0.308383,-0.468256 0.517578,-0.66211 0.385704,-0.357418 0.76327,-0.60993 1.134766,-0.759766 0.371975,-0.16243 0.744393,-0.226395 1.115234,-0.193359 0.333056,0.0316 0.669868,0.139045 1.009766,0.322266 0.346435,0.177162 0.701528,0.416628 1.068359,0.720703 l 2.6875,-2.490234 c -0.707963,-0.619785 -1.433493,-1.094728 -2.177704,-1.425781 -0.737674,-0.33711 -1.492447,-0.507664 -2.261719,-0.511718 z" />
    <path
       id="path19"
       style="font-style:normal;font-variant:normal;font-weight:bold;font-stretch:normal;font-size:27.3797px;font-family:'RobotoMono Nerd Font Mono';-inkscape-font-specification:'RobotoMono Nerd Font Mono, Bold';font-variant-ligatures:normal;font-variant-caps:normal;font-variant-numeric:normal;font-variant-east-asian:normal;text-align:start;writing-mode:lr-tb;direction:ltr;text-anchor:start;fill:#7bc1e0;fill-opacity:1;stroke-width:0"
       d="m 139.95703,7.078125 -3.39648,0.2851562 -4.72657,19.9296878 3.94336,-0.332031 0.80469,-4.144532 5.82227,-0.488281 1.47265,3.953125 3.94336,-0.330078 z m 29.82617,0.8964844 -3.51758,19.1445316 6.61329,1.216797 6.0625,1.113281 0.54882,-2.984375 -8.96875,-1.648438 2.97071,-16.160156 z M 120.30273,10.1875 c -0.81386,-0.04917 -1.65988,0.02347 -2.53906,0.216797 l -4.92187,1.082031 4.17968,19.011719 5.10547,-1.123047 c 0.84436,-0.18567 1.61268,-0.464324 2.30664,-0.835938 0.70267,-0.373527 1.31967,-0.823948 1.85157,-1.351562 0.45825,-0.44754 0.85661,-0.963745 1.19336,-1.548828 0.33483,-0.593788 0.6041,-1.219049 0.80664,-1.875 0.20462,-0.729417 0.3167,-1.506498 0.33593,-2.332031 0.0192,-0.825534 -0.0684,-1.677467 -0.26171,-2.556641 l -0.34376,-1.568359 c -0.20098,-0.913993 -0.49588,-1.752028 -0.88281,-2.515625 -0.37822,-0.765512 -0.82792,-1.441343 -1.34961,-2.029297 -0.44266,-0.477573 -0.93206,-0.899983 -1.46875,-1.265625 -0.52989,-0.376261 -1.10539,-0.665704 -1.72461,-0.867188 -0.71287,-0.253894 -1.47515,-0.400937 -2.28711,-0.441406 z m 68.64844,1.832031 -0.93945,2.886719 3.52344,1.144531 -4.14844,12.751953 -3.52149,-1.144531 -0.93359,2.873047 10.70313,3.480469 0.93554,-2.873047 -3.61133,-1.173828 4.14844,-12.751953 3.60938,1.173828 0.93945,-2.884766 z m -50.27734,0.222657 2.58398,6.974609 -4.02343,0.337891 z m -31.57617,0.916015 -3.50391,1.275391 4.40039,12.126953 c 0.20812,0.597662 0.3354,1.145695 0.38281,1.640625 0.0474,0.49493 0.009,0.935393 -0.11523,1.322266 -0.11102,0.372399 -0.30583,0.69408 -0.58594,0.966796 -0.27478,0.261293 -0.62562,0.469489 -1.05273,0.625 -0.39362,0.143315 -0.76691,0.203913 -1.11719,0.179688 -0.35333,-0.0326 -0.68415,-0.149471 -0.99414,-0.34961 -0.33589,-0.219164 -0.64669,-0.537152 -0.93164,-0.955078 -0.27658,-0.420975 -0.53075,-0.936608 -0.76172,-1.544922 l -4.425782,-12.117187 -3.529297,1.285156 4.400391,12.126953 c 0.372007,1.021729 0.846358,1.883676 1.423828,2.583985 0.5828,0.688885 1.23708,1.208285 1.96289,1.560547 0.72582,0.352261 1.50895,0.536323 2.34961,0.552734 0.63127,0.0099 1.28976,-0.108143 1.96094,-0.291016 a 123.79655,123.79655 0 0 1 0.95898,-0.310546 c 0.85593,-0.340039 1.59918,-0.752409 2.19336,-1.259766 0.66681,-0.565274 1.16722,-1.22086 1.50195,-1.96875 0.32942,-0.736466 0.48792,-1.552986 0.47461,-2.449219 -0.005,-0.899282 -0.19244,-1.861084 -0.56445,-2.882812 z m 12.58203,0.109375 c 0.40406,0.01153 0.78315,0.07361 1.13672,0.1875 0.46271,0.153767 0.88845,0.389066 1.27734,0.705078 0.39759,0.314098 0.74623,0.695273 1.04492,1.140625 0.24665,0.374666 0.46294,0.800357 0.65039,1.279297 0.19424,0.468322 0.35207,0.976995 0.47266,1.525391 l 0.34961,1.59375 c 0.12824,0.583214 0.20454,1.136143 0.22851,1.660156 0.0308,0.513395 0.014,0.991972 -0.0527,1.435547 -0.0881,0.512164 -0.22856,0.976348 -0.41992,1.392578 -0.18458,0.405612 -0.41821,0.757582 -0.69922,1.056641 -0.27422,0.28844 -0.59411,0.533125 -0.96094,0.732421 -0.36683,0.199297 -0.77587,0.347731 -1.22851,0.447266 l -1.41016,0.310547 -2.87695,-13.083984 1.22656,-0.269532 c 0.44394,-0.09762 0.86445,-0.13543 1.26172,-0.113281 z m 86.3457,4.716797 -8.41797,17.550781 3.41211,1.634766 5.42774,-11.31836 -0.54688,13.660157 3.375,1.61914 8.41797,-17.550781 -3.40039,-1.630859 -5.41602,11.265625 0.5586,-13.595703 z m -118.300781,3.875 c -0.417413,0.0096 -0.850107,0.06051 -1.294921,0.152344 -0.89376,0.175778 -1.817823,0.513856 -2.773438,1.013672 l -5.78125,3.023437 9.021484,17.248047 3.330078,-1.740234 -3.371093,-6.445313 2.523437,-1.318359 6.615235,4.746093 3.566406,-1.865234 -0.08008,-0.154297 -7.431641,-5.179687 c 0.36233,-0.461079 0.656562,-0.937248 0.882813,-1.427735 0.234148,-0.494617 0.385196,-1.011324 0.455078,-1.550781 0.06611,-0.527429 0.04363,-1.072712 -0.07031,-1.636719 -0.110179,-0.576035 -0.328195,-1.173046 -0.65039,-1.789062 -0.446117,-0.852946 -0.988125,-1.524985 -1.626954,-2.015625 -0.630931,-0.494771 -1.331389,-0.815492 -2.103515,-0.964844 -0.390012,-0.07261 -0.793524,-0.105317 -1.210938,-0.0957 z m -0.751953,3.339844 c 0.191363,4.93e-4 0.374669,0.01995 0.550782,0.05859 0.396208,0.08446 0.756029,0.269516 1.076171,0.554688 0.323909,0.273144 0.604169,0.63764 0.84375,1.095703 0.198274,0.379087 0.322517,0.75135 0.373047,1.117188 0.05843,0.361707 0.0428,0.706623 -0.04687,1.035156 -0.100252,0.404469 -0.308601,0.785987 -0.625,1.142578 -0.312632,0.344562 -0.724934,0.651426 -1.238281,0.919922 l -2.464844,1.289062 -2.824218,-5.402343 2.451171,-1.283204 c 0.458064,-0.239581 0.89537,-0.397341 1.308594,-0.472656 0.206612,-0.03766 0.404341,-0.05518 0.595703,-0.05469 z m 136.074224,1.388672 -7.08008,10.785156 c -0.5958,0.909582 -1.00146,1.80572 -1.2168,2.6875 -0.203,0.879208 -0.22844,1.713578 -0.0762,2.505859 0.15227,0.792281 0.47284,1.529643 0.96289,2.212891 0.44845,0.620275 1.04724,1.170328 1.75781,1.667969 a 123.79655,123.79655 0 0 1 0.93164,0.5625 c 0.62735,0.338789 1.25057,0.613436 1.86328,0.751953 0.85196,0.195802 1.67709,0.202955 2.47657,0.02344 0.78713,-0.176946 1.53611,-0.538815 2.24609,-1.085937 0.71743,-0.542239 1.3749,-1.268152 1.9707,-2.177735 l 7.05664,-10.798828 -3.11914,-2.042968 -7.08008,10.783203 c -0.35419,0.524463 -0.71589,0.954831 -1.08398,1.289062 -0.36809,0.334232 -0.74434,0.567559 -1.12891,0.699219 -0.36477,0.133972 -0.74082,0.170519 -1.12695,0.109375 -0.37379,-0.06372 -0.75062,-0.221639 -1.13086,-0.470703 -0.35041,-0.22953 -0.62028,-0.490057 -0.81055,-0.785156 -0.18538,-0.302556 -0.29117,-0.639688 -0.3164,-1.007813 -0.0255,-0.400259 0.0448,-0.837978 0.20898,-1.316406 0.17168,-0.473545 0.43025,-0.986014 0.7793,-1.535157 l 7.05859,-10.798828 z m -154.070318,5.248047 -2.785156,1.964843 6.015625,19.580078 3.232422,-2.28125 -1.404297,-3.984375 4.773438,-3.36914 3.271484,2.666015 3.232422,-2.28125 z m 168.890628,4.751953 -2.17383,10.878906 -10.66406,3.753906 3.35742,2.902344 7.32422,-3.037109 -1.93164,7.695312 3.3164,2.867188 2.16797,-11.095704 10.45899,-3.720703 -3.33789,-2.884765 -7.1836,3.017578 1.98242,-7.509766 z m -167.382815,0.351562 5.759766,4.705078 -3.298829,2.328125 z m -13.308594,5.583985 c -0.763213,0.0025 -1.538892,0.180484 -2.328125,0.535156 -0.782695,0.348613 -1.574811,0.895499 -2.378906,1.640625 -0.522989,0.484634 -0.9536,1.017663 -1.291016,1.597656 -0.337415,0.579993 -0.576556,1.195063 -0.714843,1.845703 -0.109742,0.563432 -0.150416,1.149368 -0.123047,1.75586 0.03391,0.600433 0.140327,1.21305 0.318359,1.83789 0.213421,0.689255 0.530168,1.384428 0.951172,2.087891 0.414946,0.696925 0.938335,1.386521 1.568359,2.066406 l 1.798828,1.941406 c 0.660315,0.712572 1.333888,1.31572 2.021485,1.808594 0.694134,0.486816 1.389231,0.855812 2.085937,1.109375 0.621614,0.238091 1.24492,0.384233 1.867188,0.439453 0.628805,0.04916 1.240638,0.01641 1.83789,-0.09961 0.597732,-0.128611 1.179436,-0.345961 1.746094,-0.652344 0.579253,-0.305903 1.131309,-0.700913 1.654297,-1.185547 0.601437,-0.557329 1.111246,-1.134699 1.53125,-1.730469 0.420004,-0.595769 0.758366,-1.181001 1.013672,-1.757812 0.254827,-0.564216 0.43387,-1.100429 0.535156,-1.607422 0.101286,-0.506993 0.138638,-0.950781 0.115235,-1.330078 l -5.22461,-5.61914 -5.109375,4.734375 L 60.958984,54 l 2.363282,-2.189453 2.388672,2.597656 c 0.0068,0.151623 -0.02458,0.333199 -0.0957,0.544922 -0.07065,0.199127 -0.170303,0.41412 -0.298828,0.642578 -0.128524,0.228458 -0.282031,0.4551 -0.460937,0.681641 -0.178906,0.22654 -0.376064,0.440713 -0.591797,0.640625 -0.359075,0.320591 -0.727436,0.55895 -1.105469,0.714843 -0.377554,0.143298 -0.768826,0.206748 -1.171875,0.191407 -0.23931,-0.0091 -0.484387,-0.04355 -0.734375,-0.103516 -0.249508,-0.07256 -0.499778,-0.168268 -0.753906,-0.285156 -0.427106,-0.211767 -0.874168,-0.495225 -1.339844,-0.853516 -0.459139,-0.364349 -0.927673,-0.805814 -1.40625,-1.322265 l -1.818359,-1.960938 c -0.38165,-0.411853 -0.712774,-0.815515 -0.994141,-1.210937 -0.274829,-0.401481 -0.498802,-0.787702 -0.673828,-1.160157 -0.22763,-0.481672 -0.38106,-0.942726 -0.458984,-1.380859 -0.07139,-0.444191 -0.07453,-0.854528 -0.0098,-1.230469 0.05487,-0.281716 0.149615,-0.545857 0.285156,-0.792968 0.135542,-0.247112 0.308383,-0.468256 0.517578,-0.66211 0.385704,-0.357418 0.76327,-0.60993 1.134766,-0.759766 0.371975,-0.16243 0.744393,-0.226395 1.115234,-0.193359 0.333056,0.0316 0.669868,0.139045 1.009766,0.322266 0.346435,0.177162 0.701528,0.416628 1.068359,0.720703 l 2.6875,-2.490234 C 60.907241,43.841152 60.181711,43.366209 59.4375,43.035156 58.699826,42.698046 57.945053,42.527492 57.175781,42.523438 Z" />
    <g
       id="g19"
       transform="matrix(2.0538051,0,0,1.7614409,-153.31248,-271.45835)">
      <text
         xml:space="preserve"
         style="font-style:normal;font-variant:normal;font-weight:bold;font-stretch:normal;font-size:40.3484px;font-family:'RobotoMono Nerd Font Mono';-inkscape-font-specification:'RobotoMono Nerd Font Mono, Bold';font-variant-ligatures:normal;font-variant-caps:normal;font-variant-numeric:normal;font-variant-east-asian:normal;text-align:start;writing-mode:lr-tb;direction:ltr;text-anchor:start;opacity:1;fill:#24243c;fill-opacity:1;stroke-width:0;filter:url(#filter19-5)"
         x="85.784279"
         y="283.55081"
         id="text16"><tspan
           sodipodi:role="line"
           id="tspan16"
           x="85.784279"
           y="283.55081"
           style="fill:#24243c;fill-opacity:1;stroke-width:0">MOKKA</tspan></text>
      <text
         xml:space="preserve"
         style="font-style:normal;font-variant:normal;font-weight:bold;font-stretch:normal;font-size:40.3484px;font-family:'RobotoMono Nerd Font Mono';-inkscape-font-specification:'RobotoMono Nerd Font Mono, Bold';font-variant-ligatures:normal;font-variant-caps:normal;font-variant-numeric:normal;font-variant-east-asian:normal;text-align:start;writing-mode:lr-tb;direction:ltr;text-anchor:start;opacity:1;fill:#f38ba8;fill-opacity:1;stroke-width:0"
         x="84.348869"
         y="281.63699"
         id="text19"><tspan
           sodipodi:role="line"
           id="tspan19"
           x="84.348869"
           y="281.63699"
           style="fill:#f38ba8;fill-opacity:1;stroke-width:0">MOKKA</tspan></text>
    </g>
  </g>
</svg>
