<svg xmlns="http://www.w3.org/2000/svg" width="1544" height="1544" viewBox="0 0 1544 1544" version="1.1"><path d="M 1019.208 586.071 C 1003.815 588.070, 986.990 594.281, 974.308 602.647 C 960.002 612.085, 944.077 630.732, 937.006 646.327 C 932.923 655.331, 928.923 669.461, 928.774 675.400 C 928.666 679.759, 929.018 680.627, 931.968 683.263 C 934.801 685.794, 935.862 686.148, 939.252 685.693 C 942.688 685.232, 944.344 683.957, 951.594 676.187 C 965.665 661.107, 979.806 651.990, 999 645.620 C 1013.268 640.885, 1023.195 639.609, 1040.377 640.302 C 1068.482 641.436, 1092.023 651.003, 1113.502 670.020 C 1121.981 677.527, 1124.229 678.533, 1129.214 677.048 C 1136.847 674.774, 1137.838 668.473, 1132.679 655 C 1115.079 609.030, 1067.054 579.857, 1019.208 586.071 M 673.334 595.481 C 632.197 602.945, 596.734 635.002, 582.411 677.671 C 579.062 687.647, 577.039 697.245, 577.017 703.265 C 577.003 707.270, 577.524 708.601, 580.286 711.615 C 582.887 714.454, 584.319 715.200, 587.165 715.200 C 592.368 715.200, 594.123 713.931, 602.064 704.423 C 619.479 683.573, 642.791 669.348, 671 662.358 C 677.057 660.858, 682.252 660.508, 698 660.541 C 715.045 660.576, 718.570 660.868, 726 662.856 C 750.933 669.527, 767.185 678.422, 787.480 696.505 C 797.636 705.555, 798.350 706, 802.700 706 C 806.638 706, 807.726 705.510, 810.632 702.429 C 814.879 697.925, 815.045 693.661, 811.409 682.472 C 800.579 649.149, 773.676 618.393, 743.086 604.364 C 734.689 600.514, 722.346 596.622, 713.566 595.057 C 705.561 593.631, 682.174 593.877, 673.334 595.481 M 904.500 772.224 C 853.890 775.485, 852.977 775.647, 849.687 782 C 846.865 787.448, 847.833 797.878, 851.668 803.339 C 855.993 809.498, 886.232 831.886, 898.845 838.267 C 908.815 843.310, 909.486 843.500, 917.384 843.500 C 924.972 843.500, 926.008 843.241, 931.402 840 C 934.605 838.075, 940.015 833.500, 943.423 829.834 C 950.413 822.314, 967.717 798.109, 969.253 793.703 C 970.757 789.389, 969.549 779.624, 967.001 775.501 C 964.232 771.021, 960.292 768.964, 954.800 769.130 C 952.435 769.202, 929.800 770.594, 904.500 772.224 M 1018.957 860.689 C 1017.254 862.123, 1013.476 866.519, 1010.563 870.458 C 1002.324 881.599, 995.796 885.925, 981.717 889.573 C 968.165 893.085, 956.175 890.880, 942 882.271 C 937.245 879.383, 932.902 877.532, 930.134 877.215 C 925.797 876.717, 925.727 876.760, 919.634 883.586 C 901.319 904.103, 892.538 909.310, 870.674 912.612 C 853.922 915.142, 844.084 913.265, 828 904.469 C 815.278 897.511, 809.355 895.775, 804.582 897.607 C 802.593 898.370, 802.534 902.641, 804.449 907.223 C 808.419 916.726, 824.095 930.884, 838.491 937.970 C 850.569 943.915, 860.481 946.311, 873 946.311 C 890.784 946.311, 904.785 941.168, 921.293 928.573 C 932.397 920.100, 936.477 918.907, 945.977 921.354 C 964.275 926.068, 974.501 925.454, 988 918.829 C 994.686 915.548, 998.101 913.020, 1004 906.983 C 1016.128 894.572, 1024.919 876.915, 1024.974 864.857 C 1025.005 858.016, 1023.431 856.925, 1018.957 860.689" stroke="none" fill="#cad3f5" fill-rule="evenodd"/><path d="M 739.500 0.690 C 526.012 9.779, 329.231 104.623, 188.941 266.049 C 89.376 380.614, 25.379 523.718, 6.543 673.914 C 1.389 715.015, -1.205 771.450, 0.687 801.331 L 1.500 814.161 153.904 661.020 C 266.383 547.996, 306.550 508.222, 307.234 509.189 C 307.868 510.085, 307.999 509.709, 307.648 508 C 299.264 467.182, 293.721 415.320, 293.593 376.500 C 293.501 348.737, 294.380 337.600, 298.120 319.088 C 300.355 308.026, 302.928 302.426, 308.765 295.924 C 317.671 286.003, 328.261 282.355, 344.993 283.443 C 379.365 285.680, 413.895 293.596, 447.225 306.880 C 455.781 310.291, 477.232 320.859, 483.040 324.525 L 486.768 326.879 649.134 164.189 L 811.500 1.500 801 0.873 C 790.473 0.243, 752.625 0.131, 739.500 0.690 M 801.750 1211.080 C 798.763 1212.820, 797.301 1217.063, 795.406 1229.500 C 792.966 1245.503, 792.958 1273.221, 795.389 1288.500 C 798.546 1308.340, 804.584 1327.384, 813.104 1344.367 C 819.370 1356.858, 819.983 1357.332, 829 1356.680 C 840.276 1355.864, 857.855 1349.280, 870.432 1341.162 C 885.600 1331.371, 901.475 1315.084, 908.586 1302.019 L 911.259 1297.108 919.379 1302.661 C 936.693 1314.499, 971.680 1329.033, 979.384 1327.588 C 984.595 1326.610, 987.086 1323.076, 989.125 1313.769 C 994.580 1288.857, 993.322 1258.621, 985.603 1229.146 C 981.688 1214.196, 978.316 1212.414, 963.810 1217.627 C 943.100 1225.068, 924.212 1237.874, 911.169 1253.315 L 907.947 1257.130 901.869 1252.561 C 881.891 1237.543, 856.209 1225.181, 823.028 1214.610 C 808.163 1209.875, 804.782 1209.314, 801.750 1211.080" stroke="none" fill="#ed8796" fill-rule="evenodd"/><path d="M 1359.972 538.272 C 1303.581 594.796, 1257.749 641.371, 1258.122 641.772 C 1261.023 644.887, 1276.892 683.739, 1283.334 703.500 C 1304.302 767.822, 1307.536 841.148, 1292.398 909 C 1286.129 937.101, 1273.922 972.358, 1262.970 994 C 1259.222 1001.406, 1260.920 999.753, 1398.337 862.193 L 1537.500 722.887 1537.262 714.193 C 1537.132 709.412, 1536.103 697.175, 1534.977 687 C 1527.040 615.280, 1509.527 546.096, 1482.681 480.404 C 1475.925 463.873, 1466.396 442.329, 1463.926 438 C 1462.507 435.511, 1462.031 435.970, 1359.972 538.272" stroke="none" fill="#7dc4e4" fill-rule="evenodd"/><path d="M 1398.855 861.726 C 1297.935 962.739, 1259.600 1001.724, 1257.969 1005 C 1253.839 1013.293, 1242.672 1032.392, 1235.175 1043.986 C 1217.506 1071.311, 1202.028 1090.116, 1175.065 1117.012 C 1147.468 1144.541, 1128.103 1160.275, 1096.500 1180.847 C 1089.350 1185.501, 1083.354 1189.423, 1083.175 1189.562 C 1082.997 1189.702, 1084.213 1196.945, 1085.878 1205.658 C 1100.691 1283.191, 1108.735 1354.741, 1111.986 1437.886 C 1112.510 1451.299, 1113.154 1462.487, 1113.415 1462.749 C 1113.987 1463.320, 1132.398 1453.629, 1151 1442.966 C 1301.387 1356.754, 1419.783 1220.731, 1484.130 1060.238 C 1514.454 984.603, 1531.869 908.112, 1538.140 823 C 1539.479 804.828, 1539.603 735.348, 1538.310 727.726 L 1537.500 722.951 1398.855 861.726" stroke="none" fill="#c6a0f6" fill-rule="evenodd"/><path d="M 649.382 163.878 L 487.265 326.500 498.882 334.151 C 516.713 345.895, 530.878 357.749, 549.627 376.616 L 566.754 393.851 584.627 388.016 C 621.750 375.897, 660.852 368.116, 708 363.466 C 727.369 361.556, 783.331 360.522, 800 361.767 L 812.500 362.700 955.500 219.211 C 1034.150 140.292, 1098.626 75.405, 1098.781 75.018 C 1099.531 73.141, 1046.605 51.201, 1017.648 41.386 C 950.600 18.659, 893.433 7.360, 816.500 1.628 L 811.500 1.256 649.382 163.878 M 217.957 596.791 C 169.305 645.581, 100.624 714.525, 65.332 750 L 1.165 814.500 2.559 832 C 9.893 924.110, 33.180 1013.682, 71.136 1095.777 L 74.500 1103.053 158.289 1019.236 L 242.078 935.418 240.603 923.459 C 235.149 879.212, 236.035 828.856, 243.101 781.500 C 253.710 710.404, 278.019 644.733, 314.307 589.135 L 322.378 576.770 318.678 561.635 C 316.644 553.311, 313.226 538.030, 311.083 527.677 C 308.940 517.324, 307.013 508.680, 306.801 508.467 C 306.588 508.255, 266.609 548, 217.957 596.791" stroke="none" fill="#f5a97f" fill-rule="evenodd"/><path d="M 956.065 218.750 L 812.964 362.500 825.732 363.710 C 852.509 366.248, 884.988 371.844, 905.500 377.453 L 914.500 379.914 916.500 377.603 C 917.600 376.332, 922.325 370.396, 927 364.412 C 937.555 350.901, 963.346 324.760, 976 314.747 C 1008.558 288.986, 1045.674 270.891, 1091.388 258.493 C 1110.429 253.329, 1125.266 256.340, 1136.287 267.606 C 1143.976 275.465, 1153.947 297.759, 1161.482 323.936 C 1164.862 335.682, 1170 359.998, 1170 364.254 C 1170 365.930, 1187.911 348.593, 1241.035 295.497 L 1312.071 224.500 1300.785 213.733 C 1255.148 170.191, 1201.544 130.271, 1148.500 100.322 C 1130.274 90.031, 1101.559 75, 1100.126 75 C 1099.599 75, 1034.771 139.688, 956.065 218.750 M 157.827 1019.774 L 74.207 1103.500 84.876 1124 C 120.396 1192.249, 157.224 1244.523, 209.377 1300.718 L 223.500 1315.936 297.974 1241.428 L 372.448 1166.920 367.482 1162.710 C 308.355 1112.582, 267.848 1047.254, 249.539 972.500 C 247.653 964.800, 245.357 954, 244.437 948.500 C 243.516 943, 242.467 937.948, 242.105 937.274 C 241.692 936.504, 210.327 967.208, 157.827 1019.774" stroke="none" fill="#eed49f" fill-rule="evenodd"/><path d="" stroke="none" fill="#000000" fill-rule="evenodd"/><path d="M 1240.822 295.750 L 1170.150 366.500 1171.023 372 C 1173.926 390.293, 1174.845 428.546, 1172.971 453.050 C 1171.739 469.157, 1168.664 491.794, 1165.860 505.395 L 1163.820 515.289 1175.220 526.895 C 1206.431 558.667, 1233.197 594.589, 1252.419 630.500 C 1255.068 635.450, 1257.426 639.706, 1257.659 639.957 C 1258.375 640.732, 1462 436.595, 1462 435.103 C 1462 433.974, 1452.214 414.759, 1442.234 396.291 C 1417.862 351.191, 1370.277 285.613, 1334.631 248 C 1318.320 230.789, 1312.640 225, 1312.064 225 C 1311.751 225, 1279.692 256.837, 1240.822 295.750 M 297.539 1241.645 L 223.578 1315.987 237.539 1329.318 C 282.844 1372.579, 327.328 1406.331, 381 1438.169 C 395.099 1446.532, 397.598 1447.705, 398.176 1446.228 C 398.548 1445.278, 400.269 1434.600, 402.001 1422.500 C 411.849 1353.688, 426.296 1288.934, 444.580 1231.654 C 447.011 1224.039, 448.771 1217.439, 448.491 1216.986 C 448.212 1216.534, 443.790 1213.903, 438.666 1211.141 C 420.780 1201.499, 401.758 1189.156, 384.085 1175.726 C 378.357 1171.372, 373.182 1167.696, 372.585 1167.557 C 371.988 1167.417, 338.218 1200.757, 297.539 1241.645" stroke="none" fill="#a6da95" fill-rule="evenodd"/><path d="" stroke="none" fill="#000000" fill-rule="evenodd"/><path d="M 1091.157 259.018 C 1021.885 277.669, 970.658 310.734, 927.280 364.797 C 922.998 370.134, 918.543 375.818, 917.379 377.430 L 915.263 380.359 900.381 376.750 C 881.215 372.101, 877.937 371.421, 863.500 369.093 C 790.276 357.286, 713.631 358.986, 639.171 374.067 C 619.759 377.998, 605.186 381.838, 583.958 388.616 L 566.417 394.216 547.958 375.766 C 527.121 354.937, 518.839 348.047, 497.716 333.962 C 453.757 304.651, 400.577 287.060, 344.993 283.443 C 328.261 282.355, 317.671 286.003, 308.765 295.924 C 302.928 302.426, 300.355 308.026, 298.120 319.088 C 294.380 337.600, 293.501 348.737, 293.593 376.500 C 293.767 429.236, 303.069 496.334, 319.431 562.881 L 322.967 577.261 316.641 586.381 C 302.815 606.310, 285.046 639.850, 274.956 665.063 C 236.427 761.346, 226.919 875.367, 249.488 970.500 C 260.069 1015.106, 280.537 1060.065, 306.850 1096.500 C 340.715 1143.392, 387.216 1183.394, 441.750 1212.545 C 445.737 1214.677, 449 1216.958, 449 1217.615 C 449 1218.272, 447.012 1225.039, 444.582 1232.654 C 428.615 1282.691, 416.881 1332.749, 406.642 1394.500 C 401.215 1427.237, 398.606 1446.531, 399.346 1448.460 C 400.056 1450.310, 448.927 1474.661, 468.500 1482.918 C 544.720 1515.070, 619.706 1533.811, 703 1541.525 C 726.840 1543.733, 786.885 1544.582, 813 1543.081 C 912.933 1537.337, 1004.364 1514.149, 1097.267 1470.990 L 1113.034 1463.665 1112.478 1450.082 C 1108.458 1351.948, 1101.406 1287.157, 1085.871 1205.658 C 1084.210 1196.945, 1082.997 1189.703, 1083.175 1189.565 C 1083.354 1189.427, 1090.700 1184.574, 1099.500 1178.780 C 1131.092 1157.980, 1148.071 1144.066, 1176.033 1116.063 C 1208.373 1083.676, 1229.169 1056.533, 1249.632 1020 C 1292.916 942.727, 1309.909 855.822, 1298.419 770.500 C 1286.501 682.002, 1243.572 597.125, 1175.172 526.821 L 1163.809 515.141 1166.411 500.821 C 1178.456 434.543, 1175.615 369.333, 1158.300 314.644 C 1153.692 300.090, 1144.061 278.214, 1139.567 272.091 C 1132.518 262.488, 1122.341 257.046, 1110.195 256.384 C 1103.869 256.039, 1100.482 256.508, 1091.157 259.018 M 1013.655 586.597 C 972.884 593.963, 940.365 624.485, 930.119 665.001 C 927.599 674.966, 927.516 677.163, 929.510 681.020 C 931.392 684.658, 933.824 686, 938.539 686 C 941.867 686, 943.191 685.018, 952.728 675.482 C 978.149 650.060, 1007.526 638.446, 1041.500 640.385 C 1066.079 641.789, 1089.736 651.037, 1108.790 666.690 C 1121.105 676.807, 1122.981 678, 1126.571 678 C 1130.931 678, 1135.739 673.910, 1136.567 669.497 C 1137.813 662.855, 1129.708 644.262, 1119.213 629.686 C 1095.363 596.562, 1053.372 579.421, 1013.655 586.597 M 682.500 593.588 C 666.459 595.854, 654.933 599.410, 642 606.083 C 619.483 617.701, 601.037 636.704, 589.173 660.504 C 583.576 671.731, 578.745 686.284, 576.977 697.240 C 575.541 706.144, 576.993 710.806, 582.190 713.974 C 588.520 717.834, 593.387 716.072, 599.970 707.539 C 606.399 699.206, 619.902 686.849, 629.453 680.559 C 670.454 653.559, 723.279 653.402, 765.902 680.154 C 773.730 685.067, 779.933 690.021, 789.694 699.156 C 797.947 706.879, 801.647 708.210, 807.344 705.507 C 815.026 701.861, 816.332 695.770, 812.123 683.207 C 797.100 638.368, 760.616 604.550, 717.500 595.501 C 709.763 593.877, 688.631 592.723, 682.500 593.588 M 900.709 772.095 C 868.994 774.207, 857.076 775.345, 854.665 776.489 C 845.756 780.716, 844.718 795.638, 852.686 804.947 C 859.050 812.382, 886.945 832.925, 898.775 838.890 C 914.980 847.061, 925.624 846.279, 937.443 836.050 C 948.216 826.725, 968.020 799.779, 970.063 791.663 C 971.739 785.007, 969.856 777.984, 965.035 772.916 L 961.310 769 952.405 769.122 C 947.507 769.190, 924.244 770.527, 900.709 772.095 M 1018.717 860.008 C 1017.313 861.112, 1014.143 864.825, 1011.674 868.258 C 1002.425 881.114, 995.523 885.762, 980.160 889.482 C 966.964 892.678, 956.910 890.563, 940.542 881.151 C 935.615 878.318, 930.665 876.016, 929.542 876.035 C 926.077 876.096, 923.480 878.178, 915.575 887.236 C 906.750 897.349, 900.092 902.670, 890.986 906.890 C 879.004 912.442, 856.224 914.690, 844.932 911.434 C 841.944 910.573, 833.830 906.989, 826.899 903.470 C 811.970 895.889, 807.246 894.754, 804.024 897.976 C 799.840 902.160, 803.479 909.656, 815.442 921.500 C 826.160 932.111, 836.340 938.493, 850 943.165 C 858.762 946.162, 860.510 946.418, 872.500 946.457 C 883.425 946.493, 886.691 946.126, 892.965 944.156 C 903.654 940.799, 911.221 936.764, 921.572 928.899 C 932.820 920.352, 936.945 919.245, 946.892 922.106 C 955.910 924.699, 968.135 925.538, 975.263 924.053 C 988.412 921.314, 1002.929 910.965, 1012.567 897.459 C 1021.913 884.361, 1027.984 866.651, 1025.213 860.568 C 1023.805 857.477, 1022.119 857.332, 1018.717 860.008 M 801.750 1211.080 C 798.763 1212.820, 797.301 1217.063, 795.406 1229.500 C 792.966 1245.503, 792.958 1273.221, 795.389 1288.500 C 798.546 1308.340, 804.584 1327.384, 813.104 1344.367 C 819.370 1356.858, 819.983 1357.332, 829 1356.680 C 840.276 1355.864, 857.855 1349.280, 870.432 1341.162 C 885.600 1331.371, 901.475 1315.084, 908.586 1302.019 L 911.259 1297.108 919.379 1302.661 C 936.693 1314.499, 971.680 1329.033, 979.384 1327.588 C 984.595 1326.610, 987.086 1323.076, 989.125 1313.769 C 994.580 1288.857, 993.322 1258.621, 985.603 1229.146 C 981.688 1214.196, 978.316 1212.414, 963.810 1217.627 C 943.100 1225.068, 924.212 1237.874, 911.169 1253.315 L 907.947 1257.130 901.869 1252.561 C 881.891 1237.543, 856.209 1225.181, 823.028 1214.610 C 808.163 1209.875, 804.782 1209.314, 801.750 1211.080" stroke="none" fill="#24243c" fill-rule="evenodd"/><path d="" stroke="none" fill="#dcafa4" fill-rule="evenodd"/></svg>