<?xml version="1.0" encoding="UTF-8" standalone="no"?>
<!-- Created with Inkscape (http://www.inkscape.org/) -->

<svg
   width="300"
   height="300"
   viewBox="0 0 300 300"
   version="1.1"
   id="svg1"
   inkscape:version="1.4 (e7c3feb100, 2024-10-09)"
   sodipodi:docname="distributor-logo-garuda.svg"
   inkscape:export-filename="/home/sgs/Bilder/icons/distributor-logo-garuda.png"
   inkscape:export-xdpi="96"
   inkscape:export-ydpi="96"
   xmlns:inkscape="http://www.inkscape.org/namespaces/inkscape"
   xmlns:sodipodi="http://sodipodi.sourceforge.net/DTD/sodipodi-0.dtd"
   xmlns:xlink="http://www.w3.org/1999/xlink"
   xmlns="http://www.w3.org/2000/svg"
   xmlns:svg="http://www.w3.org/2000/svg">
  <sodipodi:namedview
     id="namedview1"
     pagecolor="#505050"
     bordercolor="#ffffff"
     borderopacity="1"
     inkscape:showpageshadow="0"
     inkscape:pageopacity="0"
     inkscape:pagecheckerboard="1"
     inkscape:deskcolor="#505050"
     inkscape:document-units="px"
     inkscape:zoom="1.4872813"
     inkscape:cx="176.83272"
     inkscape:cy="172.46233"
     inkscape:window-width="1800"
     inkscape:window-height="1093"
     inkscape:window-x="0"
     inkscape:window-y="0"
     inkscape:window-maximized="1"
     inkscape:current-layer="layer1" />
  <defs
     id="defs1">
    <linearGradient
       inkscape:collect="always"
       xlink:href="#linearGradient13"
       id="linearGradient75"
       x1="0"
       y1="0"
       x2="1544"
       y2="1544"
       gradientUnits="userSpaceOnUse"
       gradientTransform="scale(0.19430052)" />
    <linearGradient
       id="linearGradient13"
       inkscape:collect="always">
      <stop
         style="stop-color:#ed8796;stop-opacity:1;"
         offset="0"
         id="stop75" />
      <stop
         style="stop-color:#f19989;stop-opacity:1;"
         offset="0.1436958"
         id="stop76" />
      <stop
         style="stop-color:#ed8796;stop-opacity:1;"
         offset="0.26335675"
         id="stop77" />
      <stop
         style="stop-color:#f5a97f;stop-opacity:1"
         offset="0.26335675"
         id="stop78" />
      <stop
         style="stop-color:#f5a97f;stop-opacity:1;"
         offset="0.38047278"
         id="stop79" />
      <stop
         style="stop-color:#eed49f;stop-opacity:1;"
         offset="0.38047278"
         id="stop80" />
      <stop
         style="stop-color:#eed49f;stop-opacity:1;"
         offset="0.49968362"
         id="stop81" />
      <stop
         style="stop-color:#a6da95;stop-opacity:1"
         offset="0.49968362"
         id="stop82" />
      <stop
         style="stop-color:#a6da95;stop-opacity:1;"
         offset="0.61428893"
         id="stop83" />
      <stop
         style="stop-color:#7dc4e4;stop-opacity:1;"
         offset="0.61428893"
         id="stop84" />
      <stop
         style="stop-color:#79bedd;stop-opacity:1;"
         offset="0.73365229"
         id="stop85" />
      <stop
         style="stop-color:#c6a0f6;stop-opacity:1;"
         offset="0.73365229"
         id="stop86" />
      <stop
         style="stop-color:#c6a0f6;stop-opacity:1;"
         offset="0.85397512"
         id="stop87" />
      <stop
         style="stop-color:#c6a0f6;stop-opacity:1;"
         offset="1"
         id="stop88" />
    </linearGradient>
    <filter
       inkscape:collect="always"
       style="color-interpolation-filters:sRGB"
       id="filter73"
       x="-0.023831994"
       y="-0.031139379"
       width="1.047664"
       height="1.0622788">
      <feGaussianBlur
         inkscape:collect="always"
         stdDeviation="2.5479668"
         id="feGaussianBlur73" />
    </filter>
  </defs>
  <g
     inkscape:label="Ebene 1"
     inkscape:groupmode="layer"
     id="layer1">
    <circle
       style="fill:url(#linearGradient75);stroke-width:0"
       id="path13-2"
       cx="150"
       cy="150"
       r="150" />
    <g
       id="g74"
       transform="translate(280.37736,-0.67236993)">
      <path
         style="mix-blend-mode:normal;fill:#11111b;fill-opacity:1;stroke-width:2.0171;filter:url(#filter73)"
         d="m -156.05314,242.5072 c -10.53937,-3.46911 -19.859,-6.32299 -20.71029,-6.34192 -1.13017,-0.0251 -1.73753,0.50982 -2.25097,1.98266 -0.38674,1.10941 -0.78639,2.01711 -0.88811,2.01711 -0.74232,0 -8.16752,-3.69396 -17.64613,-8.77877 -6.1652,-3.30733 -11.5291,-6.01024 -11.91978,-6.00647 -0.39068,0.004 -2.03069,1.81917 -3.64447,4.03421 -1.61378,2.21504 -3.16419,4.02735 -3.44536,4.02735 -0.28116,0 -3.17521,-7.63978 -6.43122,-16.97729 -3.25601,-9.3375 -6.46598,-18.27653 -7.13326,-19.86449 -1.44731,-3.44427 -1.03816,-3.5729 -10.84524,3.4096 -3.62119,2.57823 -6.74788,4.5238 -6.9482,4.32348 -0.20032,-0.20032 2.12951,-5.98934 5.17739,-12.86448 3.04788,-6.87515 5.38466,-12.65721 5.19284,-12.84903 -0.19181,-0.19181 -3.57216,1.21846 -7.51189,3.13394 -3.93973,1.91547 -7.30601,3.33981 -7.48063,3.16519 -0.17462,-0.17462 0.92127,-4.02063 2.43533,-8.54668 1.51405,-4.52605 2.58622,-8.39579 2.3826,-8.5994 -0.20361,-0.20362 -2.71003,0.41648 -5.5698,1.37799 -2.85978,0.96152 -5.28145,1.66636 -5.38149,1.56632 -0.10005,-0.10005 3.59513,-4.35164 8.2115,-9.44798 4.61637,-5.09634 10.13136,-11.45311 12.25553,-14.12616 4.77878,-6.01359 13.22068,-19.16396 12.66138,-19.72326 -0.22702,-0.22702 -2.57677,-0.0554 -5.22166,0.3814 -2.64489,0.4368 -4.88998,0.70893 -4.98908,0.60473 -0.0991,-0.10419 9.98387,-6.54136 22.40659,-14.30482 12.42273,-7.76347 23.21006,-14.636776 23.97186,-15.274006 1.3422,-1.12274 1.26347,-1.15931 -2.54266,-1.18098 l -3.92775,-0.0224 3.59156,-2.90426 c 1.97536,-1.59735 15.02284,-11.753884 28.99439,-22.570088 l 25.40282,-19.665825 3.50899,0.395255 c 4.18836,0.471779 63.375067,4.40285 66.289877,4.40285 2.4573,0 4.00544,1.573792 15.87379,16.136826 l 8.49331,10.421701 9.54306,4.427375 9.54307,4.427376 11.26216,15.021856 c 7.2612488,9.68531 11.2621592,15.59468 11.2621592,16.6343 0,0.88685 -0.60192,6.65784 -1.3376,12.82442 l -1.3375998,11.21199 -7.5706694,7.17252 c -4.16387,3.94489 -7.6496,7.09361 -7.74606,6.99714 -0.0965,-0.0965 0.1518,-4.68563 0.55168,-10.19818 0.39989,-5.51254 0.62982,-11.53562 0.51096,-13.38463 l -0.21609,-3.36184 -5.04276,-0.42276 c -15.52488,-1.30152 -62.58674,-4.11522 -62.93901,-3.76295 -0.22826,0.22827 1.13679,13.8199 3.03346,30.20363 1.89666,16.38374 3.44357,30.56198 3.43757,31.50722 -0.006,1.00868 -1.82907,4.34166 -4.41226,8.06842 -2.52838,3.64767 -4.27674,6.83199 -4.10853,7.48294 0.34028,1.3168 -0.3991,2.48148 -5.826053,9.17709 -4.255676,5.25054 -4.287336,5.41202 -2.075244,10.58759 0.17085,0.39974 -2.84406,2.74976 -6.69981,5.22227 -3.85575,2.4725 -7.19744,4.98275 -7.42598,5.57831 -0.22854,0.59557 -0.22466,2.5217 0.009,4.2803 0.40834,3.07823 0.3649,3.18819 -1.16485,2.94892 -4.03783,-0.63154 -20.92685,-2.95595 -21.47776,-2.95595 -0.34016,0 -0.61848,1.21026 -0.61848,2.68947 0,2.13052 -0.24454,2.68 -1.17664,2.6439 -0.64715,-0.0251 -9.79976,-2.88394 -20.33912,-6.35306 z"
         id="path73" />
      <g
         id="g73">
        <path
           style="fill:#24243c;fill-opacity:1;stroke-width:2.0171"
           d="m -159.41499,239.14535 c -10.53937,-3.46911 -19.859,-6.32299 -20.71029,-6.34192 -1.13017,-0.0251 -1.73753,0.50982 -2.25097,1.98266 -0.38674,1.10941 -0.78639,2.01711 -0.88811,2.01711 -0.74232,0 -8.16752,-3.69396 -17.64613,-8.77877 -6.1652,-3.30733 -11.5291,-6.01024 -11.91978,-6.00647 -0.39068,0.004 -2.03069,1.81917 -3.64447,4.03421 -1.61378,2.21504 -3.16419,4.02735 -3.44536,4.02735 -0.28116,0 -3.17521,-7.63978 -6.43122,-16.97729 -3.25601,-9.3375 -6.46598,-18.27653 -7.13326,-19.86449 -1.44731,-3.44427 -1.03816,-3.5729 -10.84524,3.4096 -3.62119,2.57823 -6.74788,4.5238 -6.9482,4.32348 -0.20032,-0.20032 2.12951,-5.98934 5.17739,-12.86448 3.04788,-6.87515 5.38466,-12.65721 5.19284,-12.84903 -0.19181,-0.19181 -3.57216,1.21846 -7.51189,3.13394 -3.93973,1.91547 -7.30601,3.33981 -7.48063,3.16519 -0.17462,-0.17462 0.92127,-4.02063 2.43533,-8.54668 1.51405,-4.52605 2.58622,-8.39579 2.3826,-8.5994 -0.20361,-0.20362 -2.71003,0.41648 -5.5698,1.37799 -2.85978,0.96152 -5.28145,1.66636 -5.38149,1.56632 -0.10005,-0.10005 3.59513,-4.35164 8.2115,-9.44798 4.61637,-5.09634 10.13136,-11.45311 12.25553,-14.12616 4.77878,-6.01359 13.22068,-19.16396 12.66138,-19.72326 -0.22702,-0.22702 -2.57677,-0.0554 -5.22166,0.3814 -2.64489,0.4368 -4.88998,0.70893 -4.98908,0.60473 -0.0991,-0.10419 9.98387,-6.54136 22.40659,-14.30482 12.42273,-7.76347 23.21006,-14.636766 23.97186,-15.273996 1.3422,-1.12274 1.26347,-1.15931 -2.54266,-1.18098 l -3.92775,-0.0224 3.59156,-2.90426 c 1.97536,-1.59735 15.02284,-11.753884 28.99439,-22.570088 l 25.40282,-19.665825 3.50899,0.395255 c 4.18836,0.471779 63.375077,4.40285 66.289887,4.40285 2.4573,0 4.00544,1.573792 15.87379,16.136826 l 8.49331,10.421701 9.54306,4.427375 9.54307,4.427376 11.26216,15.021846 c 7.2612498,9.68531 11.2621602,15.59468 11.2621602,16.6343 0,0.88685 -0.60192,6.65784 -1.3376,12.82442 l -1.3375998,11.21199 -7.5706704,7.17252 c -4.16387,3.94489 -7.6496,7.09361 -7.74606,6.99714 -0.0965,-0.0965 0.1518,-4.68563 0.55168,-10.19818 0.39989,-5.51254 0.62982,-11.53562 0.51096,-13.38463 l -0.21609,-3.36184 -5.04276,-0.42276 c -15.52488,-1.30152 -62.58674,-4.11522 -62.93901,-3.76295 -0.22826,0.22827 1.13679,13.8199 3.03346,30.20363 1.89666,16.38374 3.44357,30.56198 3.43757,31.50722 -0.006,1.00868 -1.82907,4.34166 -4.41226,8.06842 -2.52838,3.64767 -4.27674,6.83199 -4.10853,7.48294 0.34028,1.3168 -0.3991,2.48148 -5.826053,9.17709 -4.255684,5.25054 -4.287344,5.41202 -2.075244,10.58759 0.17085,0.39974 -2.84407,2.74976 -6.69982,5.22227 -3.85575,2.4725 -7.19744,4.98275 -7.42598,5.57831 -0.22854,0.59557 -0.22466,2.5217 0.009,4.2803 0.40834,3.07823 0.3649,3.18819 -1.16485,2.94892 -4.03783,-0.63154 -20.92685,-2.95595 -21.47776,-2.95595 -0.34016,0 -0.61848,1.21026 -0.61848,2.68947 0,2.13052 -0.24454,2.68 -1.17664,2.6439 -0.64715,-0.0251 -9.79976,-2.88394 -20.33912,-6.35306 z"
           id="path72" />
        <g
           id="g254"
           transform="matrix(0.25012936,0,0,0.25012936,342.80707,-315.37967)">
          <path
             sodipodi:nodetypes="ccccc"
             inkscape:connector-curvature="0"
             id="path252"
             d="m -1882.0539,1569.7029 c 97.0343,-44.5251 183.304,91.9642 234.6707,36.5116 -22.3915,35.7888 -74.5208,39.0439 -110.8629,39.1674 0,0 -55.7633,-1.3279 -48.4609,-48.1291 -12.0493,-19.9041 -50.2125,-19.5077 -75.3469,-27.5499 z"
             style="fill:#000000;fill-opacity:1;stroke:none;stroke-width:3.75529px;stroke-linecap:butt;stroke-linejoin:miter;stroke-opacity:1" />
          <path
             inkscape:connector-curvature="0"
             id="path253"
             d="m -1791.1094,1583.6166 a 29.541294,29.541294 0 0 0 -12.2783,23.9253 29.541294,29.541294 0 0 0 29.5437,29.5437 29.541294,29.541294 0 0 0 29.5363,-29.5437 29.541294,29.541294 0 0 0 -0.88,-7.0557 24.064536,29.209369 0 0 1 -22.5171,19.0041 24.064536,29.209369 0 0 1 -24.0648,-29.2065 24.064536,29.209369 0 0 1 0.6602,-6.6672 z"
             style="fill:#ffffff;fill-opacity:1;stroke:none;stroke-width:4.12622;stroke-linecap:round;stroke-miterlimit:4;stroke-dasharray:none;stroke-opacity:1;paint-order:stroke fill markers" />
          <path
             style="fill:#000000;fill-opacity:1;stroke:none;stroke-width:2.09904px;stroke-linecap:butt;stroke-linejoin:miter;stroke-opacity:1"
             d="m -1530.465,1634.6159 c 0,0 -33.5846,8.3959 -29.3866,27.2874 0,0 13.6438,-1.0493 29.3866,-27.2874 z"
             id="path254"
             inkscape:connector-curvature="0" />
        </g>
      </g>
    </g>
  </g>
</svg>
