<?xml version="1.0" encoding="UTF-8" standalone="no"?>
<!-- Created with Inkscape (http://www.inkscape.org/) -->

<svg
   width="300"
   height="300"
   viewBox="0 0 300 300"
   version="1.1"
   id="svg1"
   inkscape:version="1.4 (e7c3feb100, 2024-10-09)"
   xml:space="preserve"
   sodipodi:docname="RANI-sgs.svg"
   inkscape:export-filename="RANI-02-sgs.png"
   inkscape:export-xdpi="96"
   inkscape:export-ydpi="96"
   xmlns:inkscape="http://www.inkscape.org/namespaces/inkscape"
   xmlns:sodipodi="http://sodipodi.sourceforge.net/DTD/sodipodi-0.dtd"
   xmlns:xlink="http://www.w3.org/1999/xlink"
   xmlns="http://www.w3.org/2000/svg"
   xmlns:svg="http://www.w3.org/2000/svg"><sodipodi:namedview
     id="namedview1"
     pagecolor="#505050"
     bordercolor="#ffffff"
     borderopacity="1"
     inkscape:showpageshadow="0"
     inkscape:pageopacity="0"
     inkscape:pagecheckerboard="1"
     inkscape:deskcolor="#505050"
     inkscape:document-units="px"
     showguides="true"
     inkscape:zoom="1.4142136"
     inkscape:cx="-75.660426"
     inkscape:cy="158.03837"
     inkscape:window-width="1440"
     inkscape:window-height="864"
     inkscape:window-x="0"
     inkscape:window-y="0"
     inkscape:window-maximized="1"
     inkscape:current-layer="layer1" /><defs
     id="defs1"><linearGradient
       id="linearGradient79"
       inkscape:collect="always"><stop
         style="stop-color:#f5c9f3;stop-opacity:1;"
         offset="0"
         id="stop78" /><stop
         style="stop-color:#f6cefb;stop-opacity:1;"
         offset="1"
         id="stop79" /></linearGradient><linearGradient
       id="linearGradient77"
       inkscape:collect="always"><stop
         style="stop-color:#1d1d2c;stop-opacity:1;"
         offset="0"
         id="stop76" /><stop
         style="stop-color:#1c1c2c;stop-opacity:1"
         offset="1"
         id="stop77" /></linearGradient><linearGradient
       id="linearGradient49"
       inkscape:collect="always"><stop
         style="stop-color:#f5c2e7;stop-opacity:1;"
         offset="0"
         id="stop49" /><stop
         style="stop-color:#f6d1ff;stop-opacity:1;"
         offset="0.45892251"
         id="stop51" /><stop
         style="stop-color:#f5c2e7;stop-opacity:1;"
         offset="1"
         id="stop50" /></linearGradient><linearGradient
       id="linearGradient48"
       inkscape:collect="always"><stop
         style="stop-color:#454569;stop-opacity:0;"
         offset="0"
         id="stop47" /><stop
         style="stop-color:#191927;stop-opacity:0;"
         offset="1"
         id="stop48" /></linearGradient><linearGradient
       id="linearGradient46"
       inkscape:collect="always"><stop
         style="stop-color:#454569;stop-opacity:1;"
         offset="0"
         id="stop45" /><stop
         style="stop-color:#191927;stop-opacity:1;"
         offset="1"
         id="stop46" /></linearGradient><linearGradient
       id="linearGradient43"
       inkscape:collect="always"><stop
         style="stop-color:#d1b0f7;stop-opacity:1;"
         offset="0"
         id="stop43" /><stop
         style="stop-color:#d1d1d1;stop-opacity:0;"
         offset="1"
         id="stop44" /></linearGradient><linearGradient
       id="linearGradient42"
       inkscape:collect="always"><stop
         style="stop-color:#f5c2e7;stop-opacity:1"
         offset="0"
         id="stop41" /><stop
         style="stop-color:#f5c2e7;stop-opacity:1"
         offset="1"
         id="stop42" /></linearGradient><linearGradient
       id="linearGradient40"
       inkscape:collect="always"><stop
         style="stop-color:#3e3e5e;stop-opacity:1;"
         offset="0"
         id="stop39" /><stop
         style="stop-color:#414164;stop-opacity:1;"
         offset="1"
         id="stop40" /></linearGradient><linearGradient
       id="linearGradient30"
       inkscape:collect="always"><stop
         style="stop-color:#bbbfca;stop-opacity:1;"
         offset="0"
         id="stop29" /><stop
         style="stop-color:#7a7e86;stop-opacity:1;"
         offset="1"
         id="stop30" /></linearGradient><linearGradient
       id="linearGradient21"
       inkscape:collect="always"><stop
         style="stop-color:#aaaeb8;stop-opacity:1"
         offset="0"
         id="stop21" /><stop
         style="stop-color:#8e929c;stop-opacity:1;"
         offset="1"
         id="stop22" /></linearGradient><linearGradient
       id="linearGradient19"
       inkscape:collect="always"><stop
         style="stop-color:#a2a6b0;stop-opacity:1;"
         offset="0"
         id="stop19" /><stop
         style="stop-color:#9da2ab;stop-opacity:1"
         offset="1"
         id="stop20" /></linearGradient><filter
       inkscape:collect="always"
       style="color-interpolation-filters:sRGB"
       id="filter18"
       x="-0.010148496"
       y="-0.013805232"
       width="1.020297"
       height="1.0276105"><feGaussianBlur
         inkscape:collect="always"
         stdDeviation="2.1142699"
         id="feGaussianBlur18" /></filter><filter
       inkscape:collect="always"
       style="color-interpolation-filters:sRGB"
       id="filter19"
       x="-0.0127777"
       y="-0.017381796"
       width="1.0255554"
       height="1.0347636"><feGaussianBlur
         inkscape:collect="always"
         stdDeviation="1.0725985"
         id="feGaussianBlur19" /></filter><linearGradient
       inkscape:collect="always"
       xlink:href="#linearGradient42"
       id="linearGradient20"
       x1="52.716782"
       y1="77.583717"
       x2="248.43268"
       y2="218.96788"
       gradientUnits="userSpaceOnUse"
       gradientTransform="matrix(0.86997012,0,0,0.86997012,17.201754,16.976581)" /><linearGradient
       inkscape:collect="always"
       xlink:href="#linearGradient46"
       id="linearGradient22"
       x1="70.587845"
       y1="75.753792"
       x2="228.70505"
       y2="224.95332"
       gradientUnits="userSpaceOnUse"
       gradientTransform="matrix(1.01116,0,0,1.01116,-4.2019005,-4.2019005)" /><filter
       inkscape:collect="always"
       style="color-interpolation-filters:sRGB"
       id="filter25"
       x="-0.029120271"
       y="-0.029120271"
       width="1.0582405"
       height="1.0582405"><feGaussianBlur
         inkscape:collect="always"
         stdDeviation="3.6157671"
         id="feGaussianBlur25" /></filter><filter
       inkscape:collect="always"
       style="color-interpolation-filters:sRGB"
       id="filter28"
       x="-0.013128891"
       y="-0.013128891"
       width="1.0262578"
       height="1.0262578"><feGaussianBlur
         inkscape:collect="always"
         stdDeviation="1.539995"
         id="feGaussianBlur28" /></filter><linearGradient
       inkscape:collect="always"
       xlink:href="#linearGradient40"
       id="linearGradient29"
       x1="50.280399"
       y1="51.80962"
       x2="221.4449"
       y2="211.17621"
       gradientUnits="userSpaceOnUse"
       gradientTransform="matrix(0.98345458,0,0,0.98345458,-0.0460875,-0.0460875)" /><linearGradient
       inkscape:collect="always"
       xlink:href="#linearGradient21"
       id="linearGradient37"
       gradientUnits="userSpaceOnUse"
       gradientTransform="matrix(1.01116,0,0,1.01116,-4.2019005,-4.2019005)"
       x1="70.587845"
       y1="75.753792"
       x2="228.70505"
       y2="224.95332" /><linearGradient
       inkscape:collect="always"
       xlink:href="#linearGradient19"
       id="linearGradient38"
       gradientUnits="userSpaceOnUse"
       gradientTransform="matrix(0.86997012,0,0,0.86997012,17.201754,16.976581)"
       x1="49.268388"
       y1="150"
       x2="250.73161"
       y2="150" /><linearGradient
       inkscape:collect="always"
       xlink:href="#linearGradient30"
       id="linearGradient39"
       gradientUnits="userSpaceOnUse"
       gradientTransform="matrix(0.98345458,0,0,0.98345458,-0.0460875,-0.0460875)"
       x1="50.280399"
       y1="51.80962"
       x2="221.4449"
       y2="211.17621" /><linearGradient
       inkscape:collect="always"
       xlink:href="#linearGradient43"
       id="linearGradient44"
       x1="72.65863"
       y1="95.949181"
       x2="190.39046"
       y2="214.61716"
       gradientUnits="userSpaceOnUse" /><filter
       inkscape:collect="always"
       style="color-interpolation-filters:sRGB"
       id="filter44"
       x="-0.0044354419"
       y="-0.0060336323"
       width="1.0088709"
       height="1.0120673"><feGaussianBlur
         inkscape:collect="always"
         stdDeviation="0.37232429"
         id="feGaussianBlur44" /></filter><linearGradient
       inkscape:collect="always"
       xlink:href="#linearGradient48"
       id="linearGradient47"
       gradientUnits="userSpaceOnUse"
       gradientTransform="matrix(1.0726255,0,0,1.0726255,-352.83514,-70.569258)"
       x1="70.587845"
       y1="75.753792"
       x2="228.70505"
       y2="224.95332" /><linearGradient
       inkscape:collect="always"
       xlink:href="#linearGradient49"
       id="linearGradient50"
       x1="155.89366"
       y1="16.089218"
       x2="155.89366"
       y2="38.839218"
       gradientUnits="userSpaceOnUse" /><filter
       inkscape:collect="always"
       style="color-interpolation-filters:sRGB"
       id="filter51"
       x="-0.016443704"
       y="-0.063186698"
       width="1.0328874"
       height="1.1263734"><feGaussianBlur
         inkscape:collect="always"
         stdDeviation="0.59311743"
         id="feGaussianBlur51" /></filter><linearGradient
       inkscape:collect="always"
       xlink:href="#linearGradient46"
       id="linearGradient57"
       gradientUnits="userSpaceOnUse"
       gradientTransform="matrix(1.01116,0,0,1.01116,-4.2019005,-4.2019005)"
       x1="70.587845"
       y1="75.753792"
       x2="228.70505"
       y2="224.95332" /><linearGradient
       inkscape:collect="always"
       xlink:href="#linearGradient43"
       id="linearGradient58"
       gradientUnits="userSpaceOnUse"
       x1="72.65863"
       y1="95.949181"
       x2="190.39046"
       y2="214.61716" /><linearGradient
       inkscape:collect="always"
       xlink:href="#linearGradient42"
       id="linearGradient59"
       gradientUnits="userSpaceOnUse"
       gradientTransform="matrix(0.86997012,0,0,0.86997012,17.201754,16.976581)"
       x1="52.716782"
       y1="77.583717"
       x2="248.43268"
       y2="218.96788" /><linearGradient
       inkscape:collect="always"
       xlink:href="#linearGradient40"
       id="linearGradient60"
       gradientUnits="userSpaceOnUse"
       gradientTransform="matrix(0.98345458,0,0,0.98345458,-0.0460875,-0.0460875)"
       x1="50.280399"
       y1="51.80962"
       x2="221.4449"
       y2="211.17621" /><linearGradient
       inkscape:collect="always"
       xlink:href="#linearGradient48"
       id="linearGradient61"
       gradientUnits="userSpaceOnUse"
       gradientTransform="matrix(1.0726255,0,0,1.0726255,-352.83514,-70.569258)"
       x1="70.587845"
       y1="75.753792"
       x2="228.70505"
       y2="224.95332" /><linearGradient
       inkscape:collect="always"
       xlink:href="#linearGradient49"
       id="linearGradient62"
       gradientUnits="userSpaceOnUse"
       x1="155.89366"
       y1="16.089218"
       x2="155.89366"
       y2="38.839218" /><linearGradient
       inkscape:collect="always"
       xlink:href="#linearGradient46"
       id="linearGradient68"
       gradientUnits="userSpaceOnUse"
       gradientTransform="matrix(1.0355673,0,0,1.0355673,-7.924011,-7.9240081)"
       x1="70.587845"
       y1="75.753792"
       x2="228.70505"
       y2="224.95332" /><linearGradient
       inkscape:collect="always"
       xlink:href="#linearGradient43"
       id="linearGradient69"
       gradientUnits="userSpaceOnUse"
       x1="72.65863"
       y1="95.949181"
       x2="190.39046"
       y2="214.61716" /><linearGradient
       inkscape:collect="always"
       xlink:href="#linearGradient42"
       id="linearGradient70"
       gradientUnits="userSpaceOnUse"
       gradientTransform="matrix(0.89096937,0,0,0.89096937,13.996283,13.765676)"
       x1="52.716782"
       y1="77.583717"
       x2="248.43268"
       y2="218.96788" /><linearGradient
       inkscape:collect="always"
       xlink:href="#linearGradient40"
       id="linearGradient71"
       gradientUnits="userSpaceOnUse"
       gradientTransform="matrix(1.0071931,0,0,1.0071931,-3.6678854,-3.6678856)"
       x1="50.280399"
       y1="51.80962"
       x2="221.4449"
       y2="211.17621" /><linearGradient
       inkscape:collect="always"
       xlink:href="#linearGradient48"
       id="linearGradient72"
       gradientUnits="userSpaceOnUse"
       gradientTransform="matrix(1.0985164,0,0,1.0985164,-356.7188,-74.452903)"
       x1="70.587845"
       y1="75.753792"
       x2="228.70505"
       y2="224.95332" /><linearGradient
       inkscape:collect="always"
       xlink:href="#linearGradient49"
       id="linearGradient73"
       gradientUnits="userSpaceOnUse"
       x1="155.89366"
       y1="16.089218"
       x2="155.89366"
       y2="38.839218" /><linearGradient
       inkscape:collect="always"
       xlink:href="#linearGradient40"
       id="linearGradient74"
       gradientUnits="userSpaceOnUse"
       gradientTransform="matrix(-0.39136043,-0.87194332,0.87194332,-0.39136043,75.547826,341.97591)"
       x1="50.280399"
       y1="51.80962"
       x2="221.4449"
       y2="211.17621" /><linearGradient
       inkscape:collect="always"
       xlink:href="#linearGradient77"
       id="linearGradient76"
       x1="17.174084"
       y1="963.69623"
       x2="256.20279"
       y2="963.69623"
       gradientUnits="userSpaceOnUse"
       gradientTransform="matrix(1.0241379,0,0,1.0241379,7.9661132,-741.32705)" /><linearGradient
       inkscape:collect="always"
       xlink:href="#linearGradient79"
       id="linearGradient78"
       gradientUnits="userSpaceOnUse"
       gradientTransform="matrix(1.0241379,0,0,1.0241379,7.9661132,-741.32705)"
       x1="17.174084"
       y1="963.69623"
       x2="256.20279"
       y2="963.69623" /><linearGradient
       inkscape:collect="always"
       xlink:href="#linearGradient40"
       id="linearGradient80"
       gradientUnits="userSpaceOnUse"
       gradientTransform="matrix(1.0071931,0,0,1.0071931,-342.37203,16.131104)"
       x1="50.280399"
       y1="51.80962"
       x2="221.4449"
       y2="211.17621" /><linearGradient
       inkscape:collect="always"
       xlink:href="#linearGradient42"
       id="linearGradient81"
       gradientUnits="userSpaceOnUse"
       gradientTransform="matrix(0.89096937,0,0,0.89096937,-327.53629,26.493598)"
       x1="52.716782"
       y1="77.583717"
       x2="248.43268"
       y2="218.96788" /></defs><g
     inkscape:label="Ebene 1"
     inkscape:groupmode="layer"
     id="layer1"><g
       id="g37"
       transform="translate(321.73359,-1.4142131)"><circle
         style="mix-blend-mode:normal;fill:#000000;fill-opacity:1;stroke-width:2.55498;filter:url(#filter25)"
         id="circle32"
         cx="150"
         cy="150"
         r="149"
         transform="matrix(0.9195966,0,0,0.9195966,12.060511,12.060511)" /><circle
         style="fill:url(#linearGradient37);fill-opacity:1;stroke-width:1.90403"
         id="circle33"
         cx="147.47211"
         cy="147.47211"
         r="111.04331" /><path
         id="path33"
         style="mix-blend-mode:normal;fill:#000000;fill-opacity:1;stroke:none;stroke-width:2.6944px;stroke-linecap:butt;stroke-linejoin:miter;stroke-opacity:1;filter:url(#filter18)"
         d="M 113.33978,-33.779879 C 42.053303,37.064381 -29.884617,109.664 -99.999987,180.52938 -49.999837,230.65042 1.8536829,282.5606 52.472683,333.26803 L 208.8033,333.77989 340.77847,202.18782 54.235573,201.93383 22.465163,234.0012 262.28679,234.51355 195.6699,301.1264 H 65.754663 L -54.760057,180.61144 127.32141,-1.4661292 H 258.24118 L 358.55544,98.824691 202.28743,98.633451 v -44.14938 l -11.88261,11.8826 v -0.034 l -32.23944,32.24334 h 11.88261 v 0.0151 l -11.88261,-0.0151 -32.5521,32.583339 h 44.43471 v 0.0741 h 32.23944 v -0.0741 h 165.40279 v 43.78198 L 400,142.6315 399.9297,94.608601 c 0,0 -86.06018,-86.0603002 -128.30869,-128.30876 z m 158.28108,0.082 h 1.84887 l -1.88009,-0.034 0.034,0.034 z"
         sodipodi:nodetypes="cccccccccccccccccccccccccccccccccccccc"
         inkscape:export-xdpi="144"
         inkscape:export-ydpi="144"
         transform="matrix(0.35053398,0,0,0.35053398,95.397575,95.397575)" /><path
         id="path34"
         style="mix-blend-mode:normal;fill:#d1d1d1;fill-opacity:1;stroke:none;stroke-width:1.08565px;stroke-linecap:butt;stroke-linejoin:miter;stroke-opacity:1;filter:url(#filter19)"
         d="m 136.05702,75.950219 c -28.7232,28.545031 -57.708868,57.797341 -85.960206,86.350871 20.146384,20.1951 41.039539,41.11108 61.435246,61.54245 l 62.98974,0.20624 53.17629,-53.02193 -115.45572,-0.10234 -12.801106,12.92079 96.630446,0.20644 -26.8417,26.84008 H 116.88372 L 68.325178,162.33416 141.69059,88.970284 h 52.75104 l 40.41927,40.409826 -62.96452,-0.0771 V 111.5141 l -4.78781,4.78782 v -0.0137 l -12.99013,12.99169 h 4.78782 v 0.006 l -4.78782,-0.006 -13.1161,13.12869 h 17.90392 v 0.0299 h 12.99012 v -0.0299 h 66.64517 v 17.64092 l 13.01846,-13.01848 -0.0283,-19.3497 c 0,0 -34.67593,-34.67598 -51.69897,-51.699 z m 63.77564,0.03304 h 0.74496 l -0.75754,-0.0137 0.0137,0.0137 z"
         sodipodi:nodetypes="cccccccccccccccccccccccccccccccccccccc"
         inkscape:export-xdpi="144"
         inkscape:export-ydpi="144"
         transform="matrix(0.86997012,0,0,0.86997012,15.833095,16.471001)" /><path
         id="path35"
         style="fill:url(#linearGradient38);fill-opacity:1;stroke:none;stroke-width:0.944483px;stroke-linecap:butt;stroke-linejoin:miter;stroke-opacity:1"
         d="m 134.84661,83.051001 c -24.98833,24.833329 -50.205011,50.281959 -74.78283,75.122679 17.526751,17.56913 35.703169,35.76541 53.44685,53.54009 l 54.79919,0.17942 46.26179,-46.12749 -100.44303,-0.0891 -11.1366,11.2407 84.06562,0.17959 -23.35148,23.35007 h -45.5397 L 75.921911,158.20245 139.74765,94.378067 h 45.89183 l 35.16356,35.155343 -54.77726,-0.067 V 113.9906 l -4.16525,4.16526 v -0.0119 l -11.30103,11.30238 h 4.16527 v 0.005 l -4.16527,-0.005 -11.4106,11.42157 h 15.57587 v 0.026 h 11.30101 v -0.026 h 57.97931 v 15.34707 l 11.32567,-11.32569 -0.0246,-16.83366 c 0,0 -30.16702,-30.167066 -44.97656,-44.976584 z m 55.4829,0.02875 h 0.64809 l -0.65903,-0.01192 0.0119,0.01192 z"
         sodipodi:nodetypes="cccccccccccccccccccccccccccccccccccccc"
         inkscape:export-xdpi="144"
         inkscape:export-ydpi="144" /><path
         id="path36"
         style="opacity:0.610971;fill:#181825;fill-opacity:1;stroke-width:2.41353;filter:url(#filter28)"
         d="M 150,9.2421875 A 140.75735,140.75735 0 0 0 9.2421875,150 140.75735,140.75735 0 0 0 150,290.75781 140.75735,140.75735 0 0 0 290.75781,150 140.75735,140.75735 0 0 0 150,9.2421875 Z m 0,30.9394535 A 109.81775,109.81775 0 0 1 259.81836,150 109.81775,109.81775 0 0 1 150,259.81836 109.81775,109.81775 0 0 1 40.181641,150 109.81775,109.81775 0 0 1 150,40.181641 Z"
         transform="matrix(0.98345458,0,0,0.98345458,-0.04609003,-0.04609003)" /><path
         id="path37"
         style="fill:url(#linearGradient39);fill-opacity:1;stroke-width:2.3736"
         d="M 147.4721,9.0431841 A 138.42846,138.42846 0 0 0 9.0431841,147.4721 138.42846,138.42846 0 0 0 147.4721,285.90101 138.42846,138.42846 0 0 0 285.90101,147.4721 138.42846,138.42846 0 0 0 147.4721,9.0431841 Z m 0,30.4275469 A 108.00077,108.00077 0 0 1 255.47347,147.4721 108.00077,108.00077 0 0 1 147.4721,255.47347 108.00077,108.00077 0 0 1 39.470731,147.4721 108.00077,108.00077 0 0 1 147.4721,39.470731 Z" /></g><g
       id="g62"
       transform="matrix(1.055864,0,0,1.055864,-5.7104728,-325.71047)"><circle
         style="fill:url(#linearGradient22);fill-opacity:1;stroke-width:1.90403"
         id="circle6"
         cx="147.47211"
         cy="147.47211"
         r="111.04331" /><path
         id="path13"
         style="mix-blend-mode:normal;fill:#000000;fill-opacity:1;stroke:none;stroke-width:2.6944px;stroke-linecap:butt;stroke-linejoin:miter;stroke-opacity:1;filter:url(#filter18)"
         d="M 113.33978,-33.779879 C 42.053303,37.064381 -29.884617,109.664 -99.999987,180.52938 -49.999837,230.65042 1.8536829,282.5606 52.472683,333.26803 L 208.8033,333.77989 340.77847,202.18782 54.235573,201.93383 22.465163,234.0012 262.28679,234.51355 195.6699,301.1264 H 65.754663 L -54.760057,180.61144 127.32141,-1.4661292 H 258.24118 L 358.55544,98.824691 202.28743,98.633451 v -44.14938 l -11.88261,11.8826 v -0.034 l -32.23944,32.24334 h 11.88261 v 0.0151 l -11.88261,-0.0151 -32.5521,32.583339 h 44.43471 v 0.0741 h 32.23944 v -0.0741 h 165.40279 v 43.78198 L 400,142.6315 399.9297,94.608601 c 0,0 -86.06018,-86.0603002 -128.30869,-128.30876 z m 158.28108,0.082 h 1.84887 l -1.88009,-0.034 0.034,0.034 z"
         sodipodi:nodetypes="cccccccccccccccccccccccccccccccccccccc"
         inkscape:export-xdpi="144"
         inkscape:export-ydpi="144"
         transform="matrix(0.35053398,0,0,0.35053398,95.397575,95.397575)" /><path
         id="path14"
         style="mix-blend-mode:normal;fill:url(#linearGradient44);fill-opacity:1;stroke:none;stroke-width:1.08565px;stroke-linecap:butt;stroke-linejoin:miter;stroke-opacity:1;filter:url(#filter44)"
         d="m 136.05702,75.950219 c -28.7232,28.545031 -57.708868,57.797341 -85.960206,86.350871 20.146384,20.1951 41.039539,41.11108 61.435246,61.54245 l 62.98974,0.20624 53.17629,-53.02193 -115.45572,-0.10234 -12.801106,12.92079 96.630446,0.20644 -26.8417,26.84008 H 116.88372 L 68.325178,162.33416 141.69059,88.970284 h 52.75104 l 40.41927,40.409826 -62.96452,-0.0771 V 111.5141 l -4.78781,4.78782 v -0.0137 l -12.99013,12.99169 h 4.78782 v 0.006 l -4.78782,-0.006 -13.1161,13.12869 h 17.90392 v 0.0299 h 12.99012 v -0.0299 h 66.64517 v 17.64092 l 13.01846,-13.01848 -0.0283,-19.3497 c 0,0 -34.67593,-34.67598 -51.69897,-51.699 z m 63.77564,0.03304 h 0.74496 l -0.75754,-0.0137 0.0137,0.0137 z"
         sodipodi:nodetypes="cccccccccccccccccccccccccccccccccccccc"
         inkscape:export-xdpi="144"
         inkscape:export-ydpi="144"
         transform="matrix(0.86997012,0,0,0.86997012,15.833095,16.471001)" /><path
         id="path1291"
         style="fill:url(#linearGradient20);fill-opacity:1;stroke:none;stroke-width:0.944483px;stroke-linecap:butt;stroke-linejoin:miter;stroke-opacity:1"
         d="m 134.84661,83.051001 c -24.98833,24.833329 -50.205011,50.281959 -74.78283,75.122679 17.526751,17.56913 35.703169,35.76541 53.44685,53.54009 l 54.79919,0.17942 46.26179,-46.12749 -100.44303,-0.0891 -11.1366,11.2407 84.06562,0.17959 -23.35148,23.35007 h -45.5397 L 75.921911,158.20245 139.74765,94.378067 h 45.89183 l 35.16356,35.155343 -54.77726,-0.067 V 113.9906 l -4.16525,4.16526 v -0.0119 l -11.30103,11.30238 h 4.16527 v 0.005 l -4.16527,-0.005 -11.4106,11.42157 h 15.57587 v 0.026 h 11.30101 v -0.026 h 57.97931 v 15.34707 l 11.32567,-11.32569 -0.0246,-16.83366 c 0,0 -30.16702,-30.167066 -44.97656,-44.976584 z m 55.4829,0.02875 h 0.64809 l -0.65903,-0.01192 0.0119,0.01192 z"
         sodipodi:nodetypes="cccccccccccccccccccccccccccccccccccccc"
         inkscape:export-xdpi="144"
         inkscape:export-ydpi="144" /><path
         id="circle28"
         style="opacity:0.610971;fill:#181825;fill-opacity:1;stroke-width:2.41353;filter:url(#filter28)"
         d="M 150,9.2421875 A 140.75735,140.75735 0 0 0 9.2421875,150 140.75735,140.75735 0 0 0 150,290.75781 140.75735,140.75735 0 0 0 290.75781,150 140.75735,140.75735 0 0 0 150,9.2421875 Z m 0,30.9394535 A 109.81775,109.81775 0 0 1 259.81836,150 109.81775,109.81775 0 0 1 150,259.81836 109.81775,109.81775 0 0 1 40.181641,150 109.81775,109.81775 0 0 1 150,40.181641 Z"
         transform="matrix(0.98345458,0,0,0.98345458,-0.04609003,-0.04609003)" /><path
         id="path28"
         style="fill:url(#linearGradient29);fill-opacity:1;stroke-width:2.3736"
         d="M 147.4721,9.0431841 A 138.42846,138.42846 0 0 0 9.0431841,147.4721 138.42846,138.42846 0 0 0 147.4721,285.90101 138.42846,138.42846 0 0 0 285.90101,147.4721 138.42846,138.42846 0 0 0 147.4721,9.0431841 Z m 0,30.4275469 A 108.00077,108.00077 0 0 1 255.47347,147.4721 108.00077,108.00077 0 0 1 147.4721,255.47347 108.00077,108.00077 0 0 1 39.470731,147.4721 108.00077,108.00077 0 0 1 147.4721,39.470731 Z" /><circle
         style="fill:url(#linearGradient47);fill-opacity:1;stroke-width:2.01977"
         id="circle46"
         cx="-191.94133"
         cy="90.324577"
         transform="rotate(-109.79906)"
         r="117.79331" /><text
         xml:space="preserve"
         style="font-style:normal;font-variant:normal;font-weight:normal;font-stretch:normal;font-size:21.807px;font-family:'Arial Black';-inkscape-font-specification:'Arial Black, Normal';font-variant-ligatures:normal;font-variant-caps:normal;font-variant-numeric:normal;font-variant-east-asian:normal;text-align:start;writing-mode:lr-tb;direction:ltr;text-anchor:start;opacity:1;fill:#181825;fill-opacity:1;stroke-width:0.77264;filter:url(#filter51)"
         id="text48"
         transform="translate(0.95710678,1.4571068)"><textPath
           xlink:href="#circle46"
           id="textPath48"><tspan
             id="tspan48"
             style="fill:#181825;stroke-width:0.77264">R A N I</tspan></textPath></text><text
         xml:space="preserve"
         style="font-style:normal;font-variant:normal;font-weight:normal;font-stretch:normal;font-size:21.807px;font-family:'Arial Black';-inkscape-font-specification:'Arial Black, Normal';font-variant-ligatures:normal;font-variant-caps:normal;font-variant-numeric:normal;font-variant-east-asian:normal;text-align:start;writing-mode:lr-tb;direction:ltr;text-anchor:start;opacity:1;fill:url(#linearGradient50);fill-opacity:1;stroke-width:0.77264"
         id="text46"><textPath
           xlink:href="#circle46"
           id="textPath47"
           style="fill:url(#linearGradient50)"><tspan
             id="tspan46"
             style="fill:url(#linearGradient50);stroke-width:0.77264">R A N I</tspan></textPath></text></g><g
       id="g57"
       transform="translate(4.2426407,313.73297)"><circle
         style="mix-blend-mode:normal;fill:#000000;fill-opacity:1;stroke-width:2.55498;filter:url(#filter25)"
         id="circle51"
         cx="150"
         cy="150"
         r="149"
         transform="matrix(0.9195966,0,0,0.9195966,12.060511,12.060511)" /><circle
         style="fill:url(#linearGradient57);fill-opacity:1;stroke-width:1.90403"
         id="circle52"
         cx="147.47211"
         cy="147.47211"
         r="111.04331" /><path
         id="path52"
         style="mix-blend-mode:normal;fill:#000000;fill-opacity:1;stroke:none;stroke-width:2.6944px;stroke-linecap:butt;stroke-linejoin:miter;stroke-opacity:1;filter:url(#filter18)"
         d="M 113.33978,-33.779879 C 42.053303,37.064381 -29.884617,109.664 -99.999987,180.52938 -49.999837,230.65042 1.8536829,282.5606 52.472683,333.26803 L 208.8033,333.77989 340.77847,202.18782 54.235573,201.93383 22.465163,234.0012 262.28679,234.51355 195.6699,301.1264 H 65.754663 L -54.760057,180.61144 127.32141,-1.4661292 H 258.24118 L 358.55544,98.824691 202.28743,98.633451 v -44.14938 l -11.88261,11.8826 v -0.034 l -32.23944,32.24334 h 11.88261 v 0.0151 l -11.88261,-0.0151 -32.5521,32.583339 h 44.43471 v 0.0741 h 32.23944 v -0.0741 h 165.40279 v 43.78198 L 400,142.6315 399.9297,94.608601 c 0,0 -86.06018,-86.0603002 -128.30869,-128.30876 z m 158.28108,0.082 h 1.84887 l -1.88009,-0.034 0.034,0.034 z"
         sodipodi:nodetypes="cccccccccccccccccccccccccccccccccccccc"
         inkscape:export-xdpi="144"
         inkscape:export-ydpi="144"
         transform="matrix(0.35053398,0,0,0.35053398,95.397575,95.397575)" /><path
         id="path53"
         style="mix-blend-mode:normal;fill:url(#linearGradient58);fill-opacity:1;stroke:none;stroke-width:1.08565px;stroke-linecap:butt;stroke-linejoin:miter;stroke-opacity:1;filter:url(#filter44)"
         d="m 136.05702,75.950219 c -28.7232,28.545031 -57.708868,57.797341 -85.960206,86.350871 20.146384,20.1951 41.039539,41.11108 61.435246,61.54245 l 62.98974,0.20624 53.17629,-53.02193 -115.45572,-0.10234 -12.801106,12.92079 96.630446,0.20644 -26.8417,26.84008 H 116.88372 L 68.325178,162.33416 141.69059,88.970284 h 52.75104 l 40.41927,40.409826 -62.96452,-0.0771 V 111.5141 l -4.78781,4.78782 v -0.0137 l -12.99013,12.99169 h 4.78782 v 0.006 l -4.78782,-0.006 -13.1161,13.12869 h 17.90392 v 0.0299 h 12.99012 v -0.0299 h 66.64517 v 17.64092 l 13.01846,-13.01848 -0.0283,-19.3497 c 0,0 -34.67593,-34.67598 -51.69897,-51.699 z m 63.77564,0.03304 h 0.74496 l -0.75754,-0.0137 0.0137,0.0137 z"
         sodipodi:nodetypes="cccccccccccccccccccccccccccccccccccccc"
         inkscape:export-xdpi="144"
         inkscape:export-ydpi="144"
         transform="matrix(0.86997012,0,0,0.86997012,15.833095,16.471001)" /><path
         id="path54"
         style="fill:url(#linearGradient59);fill-opacity:1;stroke:none;stroke-width:0.944483px;stroke-linecap:butt;stroke-linejoin:miter;stroke-opacity:1"
         d="m 134.84661,83.051001 c -24.98833,24.833329 -50.205011,50.281959 -74.78283,75.122679 17.526751,17.56913 35.703169,35.76541 53.44685,53.54009 l 54.79919,0.17942 46.26179,-46.12749 -100.44303,-0.0891 -11.1366,11.2407 84.06562,0.17959 -23.35148,23.35007 h -45.5397 L 75.921911,158.20245 139.74765,94.378067 h 45.89183 l 35.16356,35.155343 -54.77726,-0.067 V 113.9906 l -4.16525,4.16526 v -0.0119 l -11.30103,11.30238 h 4.16527 v 0.005 l -4.16527,-0.005 -11.4106,11.42157 h 15.57587 v 0.026 h 11.30101 v -0.026 h 57.97931 v 15.34707 l 11.32567,-11.32569 -0.0246,-16.83366 c 0,0 -30.16702,-30.167066 -44.97656,-44.976584 z m 55.4829,0.02875 h 0.64809 l -0.65903,-0.01192 0.0119,0.01192 z"
         sodipodi:nodetypes="cccccccccccccccccccccccccccccccccccccc"
         inkscape:export-xdpi="144"
         inkscape:export-ydpi="144" /><path
         id="path55"
         style="opacity:0.610971;fill:#181825;fill-opacity:1;stroke-width:2.41353;filter:url(#filter28)"
         d="M 150,9.2421875 A 140.75735,140.75735 0 0 0 9.2421875,150 140.75735,140.75735 0 0 0 150,290.75781 140.75735,140.75735 0 0 0 290.75781,150 140.75735,140.75735 0 0 0 150,9.2421875 Z m 0,30.9394535 A 109.81775,109.81775 0 0 1 259.81836,150 109.81775,109.81775 0 0 1 150,259.81836 109.81775,109.81775 0 0 1 40.181641,150 109.81775,109.81775 0 0 1 150,40.181641 Z"
         transform="matrix(0.98345458,0,0,0.98345458,-0.04609003,-0.04609003)" /><path
         id="path56"
         style="fill:url(#linearGradient60);fill-opacity:1;stroke-width:2.3736"
         d="M 147.4721,9.0431841 A 138.42846,138.42846 0 0 0 9.0431841,147.4721 138.42846,138.42846 0 0 0 147.4721,285.90101 138.42846,138.42846 0 0 0 285.90101,147.4721 138.42846,138.42846 0 0 0 147.4721,9.0431841 Z m 0,30.4275469 A 108.00077,108.00077 0 0 1 255.47347,147.4721 108.00077,108.00077 0 0 1 147.4721,255.47347 108.00077,108.00077 0 0 1 39.470731,147.4721 108.00077,108.00077 0 0 1 147.4721,39.470731 Z" /><circle
         style="fill:url(#linearGradient61);fill-opacity:1;stroke-width:2.01977"
         id="circle56"
         cx="-191.94133"
         cy="90.324577"
         transform="rotate(-109.79906)"
         r="117.79331" /><text
         xml:space="preserve"
         style="font-style:normal;font-variant:normal;font-weight:normal;font-stretch:normal;font-size:21.807px;font-family:'Arial Black';-inkscape-font-specification:'Arial Black, Normal';font-variant-ligatures:normal;font-variant-caps:normal;font-variant-numeric:normal;font-variant-east-asian:normal;text-align:start;writing-mode:lr-tb;direction:ltr;text-anchor:start;opacity:1;fill:#181825;fill-opacity:1;stroke-width:0.77264;filter:url(#filter51)"
         id="text56"
         transform="translate(0.95710678,1.4571068)"><textPath
           xlink:href="#circle46"
           id="textPath56"><tspan
             id="tspan56"
             style="fill:#181825;stroke-width:0.77264">R A N I</tspan></textPath></text><text
         xml:space="preserve"
         style="font-style:normal;font-variant:normal;font-weight:normal;font-stretch:normal;font-size:21.807px;font-family:'Arial Black';-inkscape-font-specification:'Arial Black, Normal';font-variant-ligatures:normal;font-variant-caps:normal;font-variant-numeric:normal;font-variant-east-asian:normal;text-align:start;writing-mode:lr-tb;direction:ltr;text-anchor:start;opacity:1;fill:url(#linearGradient62);fill-opacity:1;stroke-width:0.77264"
         id="text57"><textPath
           xlink:href="#circle46"
           id="textPath57"
           style="fill:url(#linearGradient62)"><tspan
             id="tspan57"
             style="fill:url(#linearGradient62);stroke-width:0.77264">R A N I</tspan></textPath></text></g><path
       id="path74"
       style="fill:url(#linearGradient74);fill-opacity:1;stroke-width:2.30672"
       d="M 24.902415,207.5673 A 134.5281,134.5281 0 0 0 202.7223,275.2131 134.5281,134.5281 0 0 0 270.36803,97.393244 134.5281,134.5281 0 0 0 92.548218,29.74742 134.5281,134.5281 0 0 0 24.902415,207.5673 Z M 51.879876,195.45882 A 104.95775,104.95775 0 0 1 104.65669,56.724871 104.95775,104.95775 0 0 1 243.39064,109.50169 104.95775,104.95775 0 0 1 190.61383,248.23564 104.95775,104.95775 0 0 1 51.879876,195.45882 Z" /><circle
       style="mix-blend-mode:normal;fill:#000000;fill-opacity:1;stroke-width:2.55498;filter:url(#filter25)"
       id="circle62"
       cx="150"
       cy="150"
       r="149"
       transform="matrix(0.94179373,0,0,0.94179373,8.7309414,8.7309423)" /><circle
       style="fill:url(#linearGradient68);fill-opacity:1;stroke-width:1.94999"
       id="circle63"
       cx="147.41109"
       cy="147.41112"
       r="113.72366" /><path
       id="path63"
       style="mix-blend-mode:normal;fill:#000000;fill-opacity:1;stroke:none;stroke-width:2.6944px;stroke-linecap:butt;stroke-linejoin:miter;stroke-opacity:1;filter:url(#filter18)"
       d="M 113.33978,-33.779879 C 42.053303,37.064381 -29.884617,109.664 -99.999987,180.52938 -49.999837,230.65042 1.8536829,282.5606 52.472683,333.26803 L 208.8033,333.77989 340.77847,202.18782 54.235573,201.93383 22.465163,234.0012 262.28679,234.51355 195.6699,301.1264 H 65.754663 L -54.760057,180.61144 127.32141,-1.4661292 H 258.24118 L 358.55544,98.824691 202.28743,98.633451 v -44.14938 l -11.88261,11.8826 v -0.034 l -32.23944,32.24334 h 11.88261 v 0.0151 l -11.88261,-0.0151 -32.5521,32.583339 h 44.43471 v 0.0741 h 32.23944 v -0.0741 h 165.40279 v 43.78198 L 400,142.6315 399.9297,94.608601 c 0,0 -86.06018,-86.0603002 -128.30869,-128.30876 z m 158.28108,0.082 h 1.84887 l -1.88009,-0.034 0.034,0.034 z"
       sodipodi:nodetypes="cccccccccccccccccccccccccccccccccccccc"
       inkscape:export-xdpi="144"
       inkscape:export-ydpi="144"
       transform="matrix(0.35899513,0,0,0.35899513,94.079587,94.079584)" /><path
       id="path64"
       style="mix-blend-mode:normal;fill:url(#linearGradient69);fill-opacity:1;stroke:none;stroke-width:1.08565px;stroke-linecap:butt;stroke-linejoin:miter;stroke-opacity:1;filter:url(#filter44)"
       d="m 136.05702,75.950219 c -28.7232,28.545031 -57.708868,57.797341 -85.960206,86.350871 20.146384,20.1951 41.039539,41.11108 61.435246,61.54245 l 62.98974,0.20624 53.17629,-53.02193 -115.45572,-0.10234 -12.801106,12.92079 96.630446,0.20644 -26.8417,26.84008 H 116.88372 L 68.325178,162.33416 141.69059,88.970284 h 52.75104 l 40.41927,40.409826 -62.96452,-0.0771 V 111.5141 l -4.78781,4.78782 v -0.0137 l -12.99013,12.99169 h 4.78782 v 0.006 l -4.78782,-0.006 -13.1161,13.12869 h 17.90392 v 0.0299 h 12.99012 v -0.0299 h 66.64517 v 17.64092 l 13.01846,-13.01848 -0.0283,-19.3497 c 0,0 -34.67593,-34.67598 -51.69897,-51.699 z m 63.77564,0.03304 h 0.74496 l -0.75754,-0.0137 0.0137,0.0137 z"
       sodipodi:nodetypes="cccccccccccccccccccccccccccccccccccccc"
       inkscape:export-xdpi="144"
       inkscape:export-ydpi="144"
       transform="matrix(0.89096937,0,0,0.89096937,12.594588,13.247892)" /><path
       id="path65"
       style="fill:url(#linearGradient70);fill-opacity:1;stroke:none;stroke-width:0.967281px;stroke-linecap:butt;stroke-linejoin:miter;stroke-opacity:1"
       d="m 134.48084,81.434994 c -25.5915,25.432756 -51.416856,51.495656 -76.587931,76.935986 17.94981,17.99321 36.564968,36.62871 54.736941,54.83243 l 56.12193,0.18375 47.37845,-47.24091 -102.86751,-0.0913 -11.40541,11.51203 86.09478,0.18392 -23.91513,23.9137 H 117.39802 L 74.133822,158.40044 139.50018,93.035475 h 46.99956 l 36.01234,36.003915 -56.09947,-0.0686 v -15.84936 l -4.26579,4.2658 v -0.0122 l -11.57382,11.5752 h 4.26582 v 0.005 l -4.26582,-0.005 -11.68602,11.69726 h 15.95184 v 0.0266 h 11.57379 v -0.0266 h 59.37881 V 156.365 l 11.59904,-11.59907 -0.0252,-17.23999 c 0,0 -30.89519,-30.895239 -46.0622,-46.062219 z m 56.82214,0.02949 h 0.66373 l -0.67494,-0.01219 0.0122,0.01219 z"
       sodipodi:nodetypes="cccccccccccccccccccccccccccccccccccccc"
       inkscape:export-xdpi="144"
       inkscape:export-ydpi="144" /><path
       id="path66"
       style="opacity:0.610971;fill:#181825;fill-opacity:1;stroke-width:2.41353;filter:url(#filter28)"
       d="M 150,9.2421875 A 140.75735,140.75735 0 0 0 9.2421875,150 140.75735,140.75735 0 0 0 150,290.75781 140.75735,140.75735 0 0 0 290.75781,150 140.75735,140.75735 0 0 0 150,9.2421875 Z m 0,30.9394535 A 109.81775,109.81775 0 0 1 259.81836,150 109.81775,109.81775 0 0 1 150,259.81836 109.81775,109.81775 0 0 1 40.181641,150 109.81775,109.81775 0 0 1 150,40.181641 Z"
       transform="matrix(1.0071931,0,0,1.0071931,-3.6678875,-3.6678856)" /><path
       id="path67"
       style="fill:url(#linearGradient71);fill-opacity:1;stroke-width:2.43089"
       d="M 147.41108,5.6407803 A 141.76983,141.76983 0 0 0 5.6407826,147.41108 141.76983,141.76983 0 0 0 147.41108,289.1814 141.76983,141.76983 0 0 0 289.18137,147.41108 141.76983,141.76983 0 0 0 147.41108,5.6407803 Z m 0,31.1620067 A 110.60768,110.60768 0 0 1 258.01938,147.41108 110.60768,110.60768 0 0 1 147.41108,258.01938 110.60768,110.60768 0 0 1 36.802787,147.41108 110.60768,110.60768 0 0 1 147.41108,36.802787 Z" /><circle
       style="fill:url(#linearGradient72);fill-opacity:1;stroke-width:2.06852"
       id="circle67"
       cx="-191.94135"
       cy="90.324577"
       transform="rotate(-109.79906)"
       r="120.6366" /><text
       xml:space="preserve"
       style="font-style:normal;font-variant:normal;font-weight:normal;font-stretch:normal;font-size:21.807px;font-family:'Arial Black';-inkscape-font-specification:'Arial Black, Normal';font-variant-ligatures:normal;font-variant-caps:normal;font-variant-numeric:normal;font-variant-east-asian:normal;text-align:start;writing-mode:lr-tb;direction:ltr;text-anchor:start;fill:#181825;fill-opacity:1;stroke-width:0.77264;filter:url(#filter51)"
       id="text67"
       transform="matrix(1.0241379,0,0,1.0241379,-2.6404754,-2.1284015)"><textPath
         xlink:href="#circle46"
         id="textPath67"><tspan
           id="tspan67"
           style="fill:#181825;stroke-width:0.77264">R A N I</tspan></textPath></text><text
       xml:space="preserve"
       style="font-style:normal;font-variant:normal;font-weight:normal;font-stretch:normal;font-size:21.807px;font-family:'Arial Black';-inkscape-font-specification:'Arial Black, Normal';font-variant-ligatures:normal;font-variant-caps:normal;font-variant-numeric:normal;font-variant-east-asian:normal;text-align:start;writing-mode:lr-tb;direction:ltr;text-anchor:start;fill:url(#linearGradient73);fill-opacity:1;stroke-width:0.77264"
       id="text68"
       transform="matrix(1.0241379,0,0,1.0241379,-3.620685,-3.6206831)"><textPath
         xlink:href="#circle46"
         id="textPath68"
         style="fill:url(#linearGradient73)"><tspan
           id="tspan68"
           style="fill:url(#linearGradient73);stroke-width:0.77264">R A N I</tspan></textPath></text><path
       id="path73"
       style="fill:none;fill-opacity:1;stroke-width:2.43089"
       d="M 147.41108,5.6407803 A 141.76983,141.76983 0 0 0 5.6407826,147.41108 141.76983,141.76983 0 0 0 147.41108,289.1814 141.76983,141.76983 0 0 0 289.18137,147.41108 141.76983,141.76983 0 0 0 147.41108,5.6407803 Z m 0,31.1620067 A 110.60768,110.60768 0 0 1 258.01938,147.41108 110.60768,110.60768 0 0 1 147.41108,258.01938 110.60768,110.60768 0 0 1 36.802787,147.41108 110.60768,110.60768 0 0 1 147.41108,36.802787 Z" /><text
       xml:space="preserve"
       style="font-style:normal;font-variant:normal;font-weight:normal;font-stretch:normal;font-size:16.6024px;font-family:'Fira Sans';-inkscape-font-specification:'Fira Sans, Normal';font-variant-ligatures:normal;font-variant-caps:normal;font-variant-numeric:normal;font-variant-east-asian:normal;text-align:start;writing-mode:lr-tb;direction:ltr;text-anchor:start;fill:url(#linearGradient76);stroke-width:0.588239"
       id="text73"
       transform="translate(1.4142136,1.0606602)"><textPath
         xlink:href="#path74"
         id="textPath74"
         style="fill:url(#linearGradient76);stroke-width:0.588239"><tspan
           id="tspan73"
           style="font-style:normal;font-variant:normal;font-weight:normal;font-stretch:normal;font-size:16.6024px;font-family:'Fira Sans';-inkscape-font-specification:'Fira Sans, Normal';font-variant-ligatures:normal;font-variant-caps:normal;font-variant-numeric:normal;font-variant-east-asian:normal;fill:url(#linearGradient76);stroke-width:0.588239">Reliable Assistant for Native Installations</tspan></textPath></text><text
       xml:space="preserve"
       style="font-style:normal;font-variant:normal;font-weight:normal;font-stretch:normal;font-size:16.6024px;font-family:'Fira Sans';-inkscape-font-specification:'Fira Sans, Normal';font-variant-ligatures:normal;font-variant-caps:normal;font-variant-numeric:normal;font-variant-east-asian:normal;text-align:start;writing-mode:lr-tb;direction:ltr;text-anchor:start;fill:url(#linearGradient78);fill-opacity:1;stroke-width:0.588239"
       id="text77"><textPath
         xlink:href="#path74"
         id="textPath77"
         style="fill:url(#linearGradient78);stroke-width:0.588239"><tspan
           id="tspan77"
           style="font-style:normal;font-variant:normal;font-weight:normal;font-stretch:normal;font-size:16.6024px;font-family:'Fira Sans';-inkscape-font-specification:'Fira Sans, Normal';font-variant-ligatures:normal;font-variant-caps:normal;font-variant-numeric:normal;font-variant-east-asian:normal;fill:url(#linearGradient78);stroke-width:0.588239">Reliable Assistant for Native Installations</tspan></textPath></text><path
       id="path79"
       style="fill:url(#linearGradient80);fill-opacity:1;stroke-width:2.43089"
       d="m -191.29307,25.43977 a 141.76983,141.76983 0 0 0 -141.7703,141.7703 141.76983,141.76983 0 0 0 141.7703,141.77032 A 141.76983,141.76983 0 0 0 -49.522778,167.21007 141.76983,141.76983 0 0 0 -191.29307,25.43977 Z m 0,31.162007 A 110.60768,110.60768 0 0 1 -80.684768,167.21007 110.60768,110.60768 0 0 1 -191.29307,277.81837 110.60768,110.60768 0 0 1 -301.90136,167.21007 110.60768,110.60768 0 0 1 -191.29307,56.601777 Z" /><circle
       style="opacity:1;fill:#1c1c2c;fill-opacity:1;stroke-width:3"
       id="path80"
       cx="-191.27238"
       cy="167.23076"
       r="136.11806" /><path
       id="path81"
       style="fill:url(#linearGradient81);fill-opacity:1;stroke:none;stroke-width:0.967281px;stroke-linecap:butt;stroke-linejoin:miter;stroke-opacity:1"
       d="m -207.05174,94.162916 c -25.5915,25.432754 -51.41685,51.495654 -76.58793,76.935984 17.94981,17.99321 36.56497,36.62871 54.73694,54.83243 l 56.12193,0.18375 47.37845,-47.24091 -102.86751,-0.0913 -11.40541,11.51203 86.09478,0.18392 -23.91513,23.9137 h -46.63894 l -43.26419,-43.26416 65.36635,-65.36496 h 46.99956 l 36.01234,36.00391 -56.09947,-0.0686 v -15.84936 l -4.26579,4.2658 v -0.0122 l -11.57382,11.5752 h 4.26582 v 0.005 l -4.26582,-0.005 -11.68602,11.69726 h 15.95184 v 0.0266 h 11.57379 v -0.0266 h 59.37881 v 15.71751 l 11.59904,-11.59907 -0.0252,-17.23999 c 0,0 -30.89519,-30.89524 -46.0622,-46.062217 z m 56.82214,0.02949 h 0.66373 l -0.67494,-0.01219 0.0122,0.01219 z"
       sodipodi:nodetypes="cccccccccccccccccccccccccccccccccccccc"
       inkscape:export-xdpi="144"
       inkscape:export-ydpi="144" /></g></svg>
