<svg height="256" viewBox="0 0 256 256" width="256" xmlns="http://www.w3.org/2000/svg" xmlns:xlink="http://www.w3.org/1999/xlink"><linearGradient id="a" gradientTransform="matrix(.72964121 -.72964121 .72964121 .72964121 -550.21609 222.93203)" gradientUnits="userSpaceOnUse" x1="128.12825" x2="128.14206" y1="-45.035381" y2="299.64328"><stop offset="0" stop-color="#f38ba8"/><stop offset=".50365329" stop-color="#f9e2af"/><stop offset="1" stop-color="#89b4fa"/></linearGradient><filter id="b" color-interpolation-filters="sRGB" height="1.053241" width="1.053237" x="-.026618" y="-.02662"><feGaussianBlur stdDeviation="2.7894031"/></filter><g fill-rule="evenodd" stroke-width=".003087" transform="translate(491.8372 -94.325552)"><path d="m-332.33498 96.58471-9.01272 9.0752a119.35499 119.35499 0 0 0 -49.15483 1.06009l-8.9442-8.883746a130.20373 130.20373 0 0 0 -49.47528 26.921286 130.20373 130.20373 0 0 0 -39.88615 63.08506l8.98451 8.92002a119.35499 119.35499 0 0 0 -.60461 48.95127l-9.15985 9.22233a130.20373 130.20373 0 0 0 87.21909 92.16884l8.86359-8.92607a119.35499 119.35499 0 0 0 57.01678.92103l9.02684 8.96637a130.20373 130.20373 0 0 0 89.37553-89.99224l-8.96637-8.9039a119.35499 119.35499 0 0 0 -1.36037-57.09941l8.90994-8.97242a130.20373 130.20373 0 0 0 -92.8319-86.51371zm-31.09309 21.52413a104.82348 104.82348 0 0 1 104.82333 104.82334 104.82348 104.82348 0 0 1 -104.82333 104.82333 104.82348 104.82348 0 0 1 -104.82333-104.82333 104.82348 104.82348 0 0 1 104.82333-104.82334zm2.68649 22.43508c-10.59702 0-20.14907 1.93979-28.65653 5.82039-8.50745 3.88059-15.22428 9.47862-20.14965 16.79204-4.77611 7.16418-7.16463 15.59744-7.16463 25.29892 0 11.49253 3.20951 21.04459 9.62741 28.65653 6.56716 7.61193 18.05901 14.55211 34.47691 20.82076 8.35819 3.13432 14.03068 6.19292 17.01575 9.17799 2.98507 2.83582 4.47814 6.56851 4.47814 11.19537 0 4.32836-1.34416 7.83567-4.03073 10.52224-2.68657 2.68656-6.86597 4.02871-12.53761 4.02871-11.19402 0-22.31361-4.92392-33.35837-14.77466l-21.71559 23.95467c15.52237 15.52237 34.92631 23.28355 58.20988 23.28355 12.38805 0 23.13336-2.09071 32.23782-6.26981 9.10448-4.32836 16.04466-10.3731 20.82078-18.13428 4.92536-7.76119 7.38833-16.64116 7.38833-26.64116 0-9.25372-1.49307-16.94044-4.47814-23.05985-2.83582-6.26864-7.23858-11.56685-13.20872-15.8952-5.97015-4.47761-13.95469-8.65701-23.95468-12.5376-7.01491-2.68658-12.16421-4.84972-15.44779-6.49151-3.28358-1.79104-5.59764-3.50747-6.94093-5.14926-1.34328-1.79105-2.01537-4.03066-2.01537-6.71722 0-3.58209 1.19527-6.41732 3.58333-8.50687 2.38805-2.23881 5.96983-3.35761 10.74594-3.35761 9.85074 0 19.55171 4.10294 29.10393 12.31189l19.25483-23.28355c-6.86567-6.86567-14.62683-12.08942-23.28355-15.67151-8.65671-3.58208-18.6575-5.37297-30.00076-5.37297z" fill="#313244" filter="url(#b)"/><path d="m-332.33498 96.58471-9.01272 9.0752a119.35499 119.35499 0 0 0 -49.15483 1.06009l-8.9442-8.883746a130.20373 130.20373 0 0 0 -49.47528 26.921286 130.20373 130.20373 0 0 0 -39.88615 63.08506l8.98451 8.92002a119.35499 119.35499 0 0 0 -.60461 48.95127l-9.15985 9.22233a130.20373 130.20373 0 0 0 87.21909 92.16884l8.86359-8.92607a119.35499 119.35499 0 0 0 57.01678.92103l9.02684 8.96637a130.20373 130.20373 0 0 0 89.37553-89.99224l-8.96637-8.9039a119.35499 119.35499 0 0 0 -1.36037-57.09941l8.90994-8.97242a130.20373 130.20373 0 0 0 -92.8319-86.51371zm-31.09309 21.52413a104.82348 104.82348 0 0 1 104.82333 104.82334 104.82348 104.82348 0 0 1 -104.82333 104.82333 104.82348 104.82348 0 0 1 -104.82333-104.82333 104.82348 104.82348 0 0 1 104.82333-104.82334zm2.68649 22.43508c-10.59702 0-20.14907 1.93979-28.65653 5.82039-8.50745 3.88059-15.22428 9.47862-20.14965 16.79204-4.77611 7.16418-7.16463 15.59744-7.16463 25.29892 0 11.49253 3.20951 21.04459 9.62741 28.65653 6.56716 7.61193 18.05901 14.55211 34.47691 20.82076 8.35819 3.13432 14.03068 6.19292 17.01575 9.17799 2.98507 2.83582 4.47814 6.56851 4.47814 11.19537 0 4.32836-1.34416 7.83567-4.03073 10.52224-2.68657 2.68656-6.86597 4.02871-12.53761 4.02871-11.19402 0-22.31361-4.92392-33.35837-14.77466l-21.71559 23.95467c15.52237 15.52237 34.92631 23.28355 58.20988 23.28355 12.38805 0 23.13336-2.09071 32.23782-6.26981 9.10448-4.32836 16.04466-10.3731 20.82078-18.13428 4.92536-7.76119 7.38833-16.64116 7.38833-26.64116 0-9.25372-1.49307-16.94044-4.47814-23.05985-2.83582-6.26864-7.23858-11.56685-13.20872-15.8952-5.97015-4.47761-13.95469-8.65701-23.95468-12.5376-7.01491-2.68658-12.16421-4.84972-15.44779-6.49151-3.28358-1.79104-5.59764-3.50747-6.94093-5.14926-1.34328-1.79105-2.01537-4.03066-2.01537-6.71722 0-3.58209 1.19527-6.41732 3.58333-8.50687 2.38805-2.23881 5.96983-3.35761 10.74594-3.35761 9.85074 0 19.55171 4.10294 29.10393 12.31189l19.25483-23.28355c-6.86567-6.86567-14.62683-12.08942-23.28355-15.67151-8.65671-3.58208-18.6575-5.37297-30.00076-5.37297z" fill="url(#a)"/></g></svg>